<svg width="18" height="18" viewBox="0 0 18 18" fill="none" xmlns="http://www.w3.org/2000/svg">
<path fill-rule="evenodd" clip-rule="evenodd" d="M11.0265 15.9277L11.0345 15.9324C12.4932 16.8611 14.4012 16.6518 15.6239 15.4291L16.1399 14.9131C16.6198 14.4326 16.6198 13.6542 16.1399 13.1737L13.9659 11.0011C13.4854 10.5212 12.707 10.5212 12.2265 11.0011V11.0011C11.9961 11.2318 11.6833 11.3615 11.3572 11.3615C11.0311 11.3615 10.7183 11.2318 10.4879 11.0011L7.00921 7.52172C6.52933 7.04124 6.52933 6.26287 7.00921 5.78239V5.78239C7.23996 5.55192 7.36961 5.23918 7.36961 4.91305C7.36961 4.58693 7.23996 4.27418 7.00921 4.04372L4.83588 1.86772C4.3554 1.38784 3.57702 1.38784 3.09654 1.86772L2.58054 2.38372C1.35807 3.60648 1.14857 5.51413 2.07654 6.97305L2.08188 6.98105C4.46415 10.5076 7.50052 13.5447 11.0265 15.9277V15.9277Z" stroke="#0058A1" stroke-width="1.5" stroke-linecap="round" stroke-linejoin="round"/>
</svg>
