<svg width="18" height="18" viewBox="0 0 18 18" fill="none" xmlns="http://www.w3.org/2000/svg">
<path fill-rule="evenodd" clip-rule="evenodd" d="M11.0265 16.0918L11.0345 16.0964C12.4932 17.0251 14.4012 16.8159 15.6239 15.5931L16.1399 15.0771C16.6198 14.5966 16.6198 13.8183 16.1399 13.3378L13.9659 11.1651C13.4854 10.6852 12.707 10.6852 12.2265 11.1651V11.1651C11.9961 11.3959 11.6833 11.5255 11.3572 11.5255C11.0311 11.5255 10.7183 11.3959 10.4879 11.1651L7.00921 7.68578C6.52933 7.2053 6.52933 6.42693 7.00921 5.94645V5.94645C7.23996 5.71599 7.36961 5.40324 7.36961 5.07712C7.36961 4.75099 7.23996 4.43825 7.00921 4.20778L4.83588 2.03178C4.3554 1.55191 3.57702 1.55191 3.09654 2.03178L2.58054 2.54778C1.35807 3.77055 1.14857 5.67819 2.07654 7.13712L2.08188 7.14512C4.46415 10.6717 7.50052 13.7087 11.0265 16.0918V16.0918Z" stroke="#0058A1" stroke-width="1.5" stroke-linecap="round" stroke-linejoin="round"/>
</svg>
