<svg width="20" height="20" viewBox="0 0 20 20" fill="none" xmlns="http://www.w3.org/2000/svg">
<path d="M11.4696 9.97732L19.7595 1.7095C20.0993 1.31381 20.0765 0.723955 19.7071 0.355574C19.3377 -0.0128063 18.7463 -0.0355897 18.3495 0.303278L10.0596 8.57109L1.76957 0.293305C1.37745 -0.0977682 0.741696 -0.0977682 0.349575 0.293305C-0.0425466 0.684377 -0.0425467 1.31843 0.349575 1.7095L8.64956 9.97732L0.349575 18.2451C0.0641991 18.4889 -0.0601064 18.8716 0.0277652 19.2359C0.115637 19.6002 0.400855 19.8847 0.766155 19.9723C1.13145 20.0599 1.51518 19.936 1.75957 19.6514L10.0596 11.3835L18.3495 19.6514C18.7463 19.9902 19.3377 19.9674 19.7071 19.5991C20.0765 19.2307 20.0993 18.6408 19.7595 18.2451L11.4696 9.97732Z" fill="#0058A1"/>
</svg>
