<svg width="9" height="8" viewBox="0 0 9 8" fill="none" xmlns="http://www.w3.org/2000/svg">
<path d="M5.15314 3.97798L8.39314 0.737982C8.54416 0.561644 8.534 0.298785 8.36984 0.134621C8.20567 -0.0295431 7.94281 -0.0396962 7.76648 0.111316L4.52648 3.35132L1.28648 0.106871C1.11014 -0.0441407 0.847281 -0.0339876 0.683116 0.130176C0.518952 0.29434 0.508799 0.5572 0.659811 0.733538L3.89981 3.97798L0.655367 7.21798C0.528533 7.3266 0.473286 7.49715 0.51234 7.6595C0.551394 7.82186 0.678158 7.94862 0.840514 7.98768C1.00287 8.02673 1.17342 7.97148 1.28203 7.84465L4.52648 4.60465L7.76648 7.84465C7.94281 7.99566 8.20567 7.98551 8.36984 7.82134C8.534 7.65718 8.54416 7.39432 8.39314 7.21798L5.15314 3.97798Z" fill="#2C2C2C"/>
</svg>
