<svg width="1110" height="76" viewBox="0 0 1110 76" fill="none" xmlns="http://www.w3.org/2000/svg">
<path d="M-62.0238 530.59C-62.0238 530.59 122.594 322.995 303.447 334.807C379.743 339.791 404.806 388.197 452.049 368.079C499.292 347.96 586.838 214.525 634.403 203.514C698.919 188.569 760.719 291.787 817.338 264.656C901.267 224.445 947.574 186.756 1082.47 167.831C1195.29 152 1322.77 48.4626 1322.77 48.4626M1322.08 46.4608C1322.08 46.4608 1194.74 147.779 1081.36 163.413C1037.45 169.51 1002.82 177.65 973.152 187.313C911.786 207.299 872.082 233.063 815.495 259.857C758.612 286.61 696.842 183.867 632.033 198.693C584.331 209.617 496.906 342.087 449.44 362.305C402.243 382.395 377.034 334.581 301.047 329.826C120.272 318.883 -64.0067 525.659 -64.0067 525.659M1321.39 44.463C1321.39 44.463 1194.18 143.551 1080.24 158.997C1036.35 165.029 1001.62 173.158 971.791 182.905C910.14 203.028 870.271 228.742 813.643 255.06C756.575 281.583 694.766 179.156 629.665 193.87C581.814 204.706 494.522 336.219 446.818 356.505C399.665 376.572 374.325 329.189 298.638 324.817C117.974 314.387 -65.9921 520.722 -65.9921 520.722M1320.7 42.4647C1320.7 42.4647 1193.63 139.328 1079.13 154.584C1035.25 160.55 1000.42 168.667 970.428 178.494C908.498 198.768 868.434 224.345 811.792 250.265C754.5 276.481 692.685 174.443 627.295 189.05C579.306 199.814 492.133 330.338 444.213 350.724C397.112 370.764 371.623 323.895 296.242 319.828C115.662 310.087 -67.977 515.786 -67.977 515.786M1320.01 40.4662C1320.01 40.4662 1193.07 135.105 1078.01 150.171C1034.15 156.071 999.227 164.175 969.065 174.083C906.839 194.507 866.597 219.945 809.939 245.467C752.423 271.376 690.608 169.732 624.925 184.23C576.799 194.911 489.748 324.467 441.59 344.931C394.535 364.943 368.9 318.58 293.824 314.832C113.347 305.788 -69.9593 510.857 -69.9593 510.857M1319.32 38.4691C1319.32 38.4691 1192.49 130.63 1076.89 145.758C1033.03 151.498 998.029 159.685 967.7 169.674C905.198 190.24 864.755 215.544 808.087 240.67C750.348 266.275 688.528 165.022 622.555 179.411C574.287 190.007 487.362 318.592 438.977 339.144C391.968 359.132 366.193 313.298 291.423 309.836C111.034 301.492 -71.945 505.919 -71.945 505.919M1318.63 36.4704C1318.63 36.4704 1191.91 126.363 1075.77 141.344C1031.93 146.999 996.834 155.192 966.337 165.262C903.56 185.971 862.913 211.142 806.242 235.889C748.274 261.185 686.456 160.322 620.189 174.602C571.783 185.12 484.981 312.731 436.368 333.371C389.406 353.334 363.488 308.012 289.021 304.85C108.716 297.194 -73.9297 500.984 -73.9297 500.984M1317.94 34.4727C1317.94 34.4727 1191.36 122.091 1074.66 136.932C1030.84 142.497 995.647 150.698 964.976 160.855C901.922 181.703 861.07 206.738 804.384 231.078C746.189 256.065 684.368 155.6 617.814 169.769C569.266 180.212 482.595 306.857 433.746 327.571C386.833 347.506 360.772 302.705 286.614 299.847C106.397 292.901 -75.914 496.049 -75.914 496.049M1317.24 32.475C1317.24 32.475 1190.8 117.823 1073.54 132.515C1029.73 138.007 994.44 146.21 963.613 156.443C900.283 177.434 859.224 202.334 802.53 226.283C744.109 250.961 682.294 150.887 615.444 164.949C566.758 175.3 480.204 300.97 431.132 321.783C384.251 341.699 358.06 297.411 284.198 294.856C104.076 288.611 -77.902 491.105 -77.902 491.105M1316.55 30.4752C1316.55 30.4752 1190.24 113.542 1072.42 128.1C1028.62 133.511 993.243 141.716 962.251 152.043C898.631 173.183 857.382 197.941 800.681 221.496C742.028 245.862 680.221 146.186 613.076 160.136C564.251 170.409 477.821 295.106 428.522 316.006C381.702 335.892 355.351 292.132 281.807 289.871C101.753 284.317 -79.883 486.18 -79.883 486.18M1315.86 28.4768C1315.86 28.4768 1189.68 109.286 1071.3 123.688C1027.52 129.016 992.045 137.225 960.884 147.621C896.983 168.905 855.527 193.514 798.826 216.689C739.94 240.745 678.135 141.461 610.705 155.304C561.729 165.496 475.43 289.219 425.904 310.208C379.129 330.066 352.634 286.831 279.398 284.864C99.4298 280.032 -81.8676 481.245 -81.8676 481.245M1315.16 26.4811C1315.16 26.4811 1189.11 105.022 1070.18 119.277C1026.41 124.523 990.841 132.736 959.514 143.215C895.331 164.644 853.674 189.117 796.965 211.894C737.847 235.64 676.05 136.753 608.326 150.487C559.219 160.594 473.044 283.344 423.281 304.423C376.553 324.257 349.912 281.545 276.985 279.872C97.1067 275.745 -83.8524 476.309 -83.8524 476.309M1314.47 24.4818C1314.47 24.4818 1188.56 100.755 1069.07 114.862C1025.32 120.026 989.651 128.243 958.16 138.802C893.695 160.373 851.832 184.706 795.121 207.095C735.769 230.53 673.979 132.041 605.965 145.665C556.719 155.687 470.659 277.473 420.674 298.635C373.995 318.443 347.205 276.254 274.587 274.876C94.7797 271.466 -85.8365 471.375 -85.8365 471.375M1313.78 22.483C1313.78 22.483 1188 96.4903 1067.96 110.444C1024.22 115.53 988.459 123.749 956.8 134.39C892.053 156.105 849.983 180.294 793.273 202.298C733.684 225.419 671.905 127.328 603.603 140.838C554.217 150.782 468.284 271.594 418.068 292.844C371.436 312.625 344.499 270.965 272.191 269.877C92.4499 267.179 -87.8201 466.442 -87.8201 466.442M1313.1 20.4953C1313.1 20.4953 1187.45 92.2365 1066.84 106.043C1023.12 111.05 987.261 119.27 955.436 129.991C890.407 151.852 848.14 175.889 791.418 197.501C731.592 220.309 669.821 122.615 601.224 136.021C551.697 145.88 465.888 265.721 415.445 287.06C368.86 306.815 341.775 265.682 269.778 264.888C90.1221 262.898 -89.8051 461.506 -89.8051 461.506M1312.41 18.4829C1312.41 18.4829 1186.89 87.9579 1065.71 101.62C1022.01 106.559 986.056 114.769 954.062 125.571C888.753 147.576 846.269 171.471 789.56 192.708C729.495 215.195 667.738 117.906 598.848 131.203C549.183 140.98 463.496 259.849 412.82 281.26C366.281 300.991 339.047 260.389 267.362 259.881C87.7885 258.619 -91.79 456.571 -91.79 456.571M1311.71 16.4842C1311.71 16.4842 1186.32 83.6989 1064.6 97.2047C1020.91 102.051 984.862 110.275 952.703 121.151C887.111 143.298 844.413 167.044 787.71 187.899C727.407 210.077 665.672 113.18 596.477 126.363C546.67 136.056 461.108 253.954 410.21 275.467C363.717 295.171 336.335 255.101 264.959 254.881C85.4571 254.346 -93.7749 451.635 -93.7749 451.635M1311.02 14.4854C1311.02 14.4854 1185.77 79.4368 1063.48 92.7905C1019.8 97.5587 983.667 105.782 951.343 116.748C885.469 139.038 842.564 162.639 785.859 183.113C725.318 204.974 663.559 108.34 594.112 121.558C544.147 131.07 458.73 248.099 407.6 269.698C361.156 289.376 333.625 249.837 262.562 249.903C83.122 250.071 -95.7585 446.702 -95.7585 446.702M1310.32 12.4865C1310.32 12.4865 1185.21 75.1747 1062.37 88.3764C1018.7 93.0657 982.471 101.29 949.981 112.337C883.822 134.772 840.697 158.223 784.007 178.315C723.224 199.858 661.479 103.62 591.745 116.736C541.637 126.161 456.343 242.223 404.986 263.91C358.589 283.564 330.91 244.558 260.157 244.907C80.7879 245.799 -97.7433 441.766 -97.7433 441.766M1309.63 10.4895C1309.63 10.4895 1184.65 70.9161 1061.25 83.9611C1017.6 88.5774 981.273 96.7991 948.615 107.927C882.178 130.506 838.847 153.801 782.155 173.517C721.128 194.745 659.4 98.9032 589.375 111.917C539.128 121.253 453.957 236.349 402.367 258.126C356.015 277.751 328.186 239.283 257.747 239.915C78.4483 241.53 -99.7278 436.832 -99.7278 436.832M1308.94 8.49186C1308.94 8.49186 1184.09 66.6592 1060.13 79.5482C1016.5 84.0856 980.075 92.3089 947.254 103.519C880.539 126.255 836.988 149.381 780.304 168.723C719.034 189.628 657.321 94.187 587.004 107.095C536.618 116.346 451.571 230.475 399.757 252.331C353.452 271.932 325.475 234.007 255.344 234.914C76.1216 237.26 -101.712 431.897 -101.712 431.897M1308.25 6.49368C1308.25 6.49368 1183.53 62.4007 1059.01 75.1359C1015.4 79.5972 978.885 87.8315 945.891 99.1086C878.889 121.974 835.126 144.961 778.451 163.926C716.948 184.507 655.242 89.4703 584.634 102.276C534.106 111.442 449.185 224.603 397.145 246.55C350.887 266.127 322.753 228.731 252.942 229.928C73.7723 233.001 -103.69 426.979 -103.69 426.979M1307.56 4.49515C1307.56 4.49515 1182.97 58.1291 1057.9 70.721C1014.29 75.1079 977.683 83.3239 944.528 94.6964C877.245 117.707 833.265 140.535 776.594 159.132C714.833 179.396 653.157 84.7543 582.262 97.4682C531.595 106.547 446.812 218.735 394.53 240.776C348.317 260.325 320.034 223.469 250.548 224.941C71.4316 228.737 -105.681 422.029 -105.681 422.029M1306.86 2.49534C1306.86 2.49534 1182.42 53.8845 1056.78 66.307C1013.2 70.6146 976.485 78.8343 943.162 90.2849C875.597 113.44 831.401 136.111 774.747 154.331C712.732 174.263 651.083 80.0337 579.893 92.6333C529.089 101.632 444.411 212.851 391.914 234.974C345.751 254.498 317.327 218.176 248.132 219.935C69.0945 224.492 -107.666 417.092 -107.666 417.092M1306.17 0.497624C1306.17 0.497624 1181.86 49.6292 1055.66 61.8911C1012.09 66.1169 975.292 74.3486 941.8 85.8773C873.953 109.175 829.537 131.685 772.905 149.533C710.647 169.152 649.013 75.3141 577.531 87.8081C526.583 96.7168 442.034 206.973 389.32 229.18C343.204 248.679 314.605 212.907 245.746 214.934C66.7443 220.22 -109.65 412.157 -109.65 412.157M1305.48 -1.49973C1305.48 -1.49973 1181.3 45.3668 1054.55 57.4785C1011 61.6381 974.095 69.852 940.438 81.4674C872.31 104.91 827.673 127.26 771.044 144.74C708.536 164.035 646.917 70.6049 575.156 82.9916C524.065 91.8131 439.641 201.106 386.689 223.408C340.627 242.875 311.878 207.651 243.325 209.957C64.4008 215.967 -111.633 407.226 -111.633 407.226M1304.79 -3.49935C1304.79 -3.49935 1180.75 41.1202 1053.43 53.0637C1009.89 57.1473 972.896 65.3588 939.075 77.054C870.665 100.641 825.806 122.829 769.188 139.941C706.432 158.912 644.845 65.8824 572.785 78.1696C521.556 86.9056 437.253 195.229 384.071 217.609C338.051 237.058 309.154 202.374 240.917 204.954C62.0543 211.714 -113.619 402.289 -113.619 402.289M1304.1 -5.49742C1304.1 -5.49742 1180.19 36.8686 1052.31 48.6502C1008.79 52.659 971.713 60.8654 937.713 72.6461C869.021 96.378 823.941 118.401 767.338 135.149C704.328 153.788 642.766 61.1657 570.419 73.345C519.048 81.9968 434.872 189.352 381.463 211.82C335.49 231.244 306.433 197.091 238.519 199.957C59.7056 207.465 -115.604 397.354 -115.604 397.354M1303.41 -7.49604C1303.41 -7.49604 1179.64 32.6131 1051.2 44.2341C1007.7 48.1698 970.51 56.3725 936.355 68.2297C867.382 92.1064 822.082 113.962 765.493 130.345C702.233 148.661 640.691 56.4337 568.052 68.524C516.543 77.0903 432.483 183.478 378.849 206.033C332.924 225.428 303.722 191.84 236.114 194.962C57.3604 203.224 -117.587 392.421 -117.587 392.421M1302.71 -9.49328C1302.71 -9.49328 1179.09 28.362 1050.08 39.8239C1006.6 43.6853 969.306 51.8839 934.985 63.8249C865.729 87.8436 820.204 109.535 763.637 125.562C700.123 143.546 638.61 51.7375 565.677 63.7163C514.028 72.1944 430.097 177.613 376.23 200.258C330.352 219.628 301 186.597 233.704 189.979C55.0168 198.996 -119.568 387.495 -119.568 387.495M1302.02 -11.4918C1302.02 -11.4918 1178.53 24.1161 1048.97 35.4049C1005.5 39.1943 968.115 47.3867 933.63 59.4104C864.09 83.5653 818.344 105.097 761.79 120.752C698.024 138.407 636.539 47.0142 563.313 58.8844C511.519 67.2724 427.717 171.729 373.621 194.459C327.79 213.805 298.28 181.314 231.306 184.975C52.6598 194.733 -121.556 382.551 -121.556 382.551M1301.33 -13.49C1301.33 -13.49 1177.96 19.8706 1047.84 30.9948C1004.39 34.7122 966.913 42.9009 932.259 55.0028C862.441 79.3111 816.464 100.664 759.93 115.961C695.907 133.282 634.455 42.3094 560.933 54.0653C509.004 62.3765 425.318 165.846 370.999 188.675C325.21 207.995 295.55 176.058 228.893 179.983C50.3072 190.499 -123.541 377.616 -123.541 377.616M1300.64 -15.4886C1300.64 -15.4886 1177.41 15.6192 1046.71 26.5843C1003.28 30.2268 965.702 38.4132 930.884 50.5949C860.782 75.0492 814.583 96.2297 758.066 111.166C693.786 128.156 632.366 37.6014 558.551 49.2487C506.494 57.4672 422.944 159.979 368.383 182.884C322.64 202.166 292.824 170.795 226.484 174.985C47.9515 186.257 -125.515 372.675 -125.515 372.675M1299.95 -17.4898C1299.95 -17.4898 1176.86 11.372 1045.61 22.1674C1002.19 25.7368 964.516 33.9111 929.531 46.1835C859.149 70.7787 812.722 91.7861 756.224 106.362C691.689 123.016 630.294 32.8686 556.194 44.4207C503.981 52.5605 420.548 154.104 365.766 177.098C320.075 196.36 290.104 165.538 224.08 169.991C45.601 182.029 -127.51 367.747 -127.51 367.747M1299.26 -19.4879C1299.26 -19.4879 1176.3 7.1232 1044.49 17.7539C1001.09 21.2542 963.322 29.425 928.169 41.7726C857.505 66.5126 810.849 87.347 754.374 101.57C689.574 117.89 628.21 28.157 553.825 39.604C501.473 47.6584 418.164 148.235 363.154 171.314C317.511 190.557 287.382 160.286 221.677 164.999C43.2477 177.801 -129.494 362.812 -129.494 362.812M1298.56 -21.487C1298.56 -21.487 1175.75 2.8792 1043.37 13.3406C999.99 16.7678 962.124 24.9334 926.806 37.3608C855.861 62.2456 808.975 82.9041 752.521 96.7714C687.469 112.752 626.138 23.4399 551.454 34.7806C498.976 42.748 415.78 142.359 360.54 165.526C314.946 184.75 284.658 155.029 219.273 160.006C40.8912 173.574 -131.479 357.876 -131.479 357.876M1297.88 -23.4913C1297.88 -23.4913 1175.2 -1.37286 1042.27 8.91813C998.901 12.2762 960.935 20.4239 925.454 32.9438C854.228 57.9735 807.1 78.4604 750.678 91.9718C685.369 107.612 624.071 18.72 549.095 29.955C496.464 37.8425 413.403 136.475 357.937 159.733C312.392 178.939 281.944 149.772 216.877 155.006C38.5355 169.349 -133.463 352.943 -133.463 352.943M1297.18 -25.484C1297.18 -25.484 1174.63 -5.61036 1041.14 4.51023C997.789 7.79519 959.73 15.9492 924.089 28.5341C852.578 53.7097 805.236 74.0082 748.823 87.1753C683.254 102.476 621.99 14.0073 546.722 25.1366C493.953 32.9387 411.015 130.605 355.323 153.946C309.807 173.114 279.224 144.522 214.473 150.011C36.1903 165.125 -135.423 348.011 -135.423 348.011M1296.49 -27.4816C1296.49 -27.4816 1174.08 -9.8528 1040.02 0.0973865C996.687 3.31434 958.534 11.4579 922.72 24.1426C850.929 49.4562 803.346 69.5861 746.968 82.3962C681.138 97.3543 619.905 9.30994 544.347 20.3296C491.443 28.0481 408.625 124.746 352.7 148.177C307.245 167.315 276.492 139.287 212.061 145.033C33.8232 160.914 -137.432 343.073 -137.432 343.073M1295.8 -29.4803C1295.8 -29.4803 1173.52 -14.0994 1038.91 -4.31672C995.584 -1.17753 957.335 6.96661 921.353 19.7197C849.281 45.181 801.477 65.1219 745.111 77.5866C679.02 92.2022 617.822 4.58397 541.972 15.4979C488.923 23.1332 406.235 118.862 350.081 142.378C304.673 161.491 273.764 134.029 209.643 140.03C31.4623 156.701 -139.417 338.138 -139.417 338.138M1295.1 -31.4782C1295.1 -31.4782 1172.97 -18.3363 1037.79 -8.72985C994.486 -5.65513 956.137 2.47507 919.99 15.308C847.635 40.9113 799.595 60.6755 743.259 72.7882C676.904 87.0625 615.743 -0.133521 539.603 10.6776C486.415 18.2275 403.843 112.989 347.47 136.589C302.107 155.675 271.055 128.775 207.248 135.031C29.1086 152.49 -141.395 333.209 -141.395 333.209M1294.41 -33.4747C1294.41 -33.4747 1172.42 -22.5748 1036.67 -13.1444C993.388 -10.136 954.942 -2.01496 918.637 10.8956C846.001 36.6437 797.733 56.2212 741.417 67.992C674.799 81.9181 613.676 -4.84603 537.245 5.85545C483.913 13.3222 401.474 107.116 344.863 130.801C299.547 149.863 268.327 123.533 204.851 130.039C26.746 148.281 -143.386 328.269 -143.386 328.269M1293.72 -35.4764C1293.72 -35.4764 1171.86 -26.8173 1035.55 -17.5603C992.287 -14.6221 953.745 -6.51033 917.262 6.48854C844.344 32.3786 795.841 51.7686 739.555 63.1943C672.674 76.7721 611.588 -9.56007 534.864 1.03284C481.393 8.41414 399.075 101.236 342.239 125.014C296.97 144.051 265.584 118.294 202.436 125.044C24.3858 144.079 -145.366 323.345 -145.366 323.345M1293.03 -37.4746C1293.03 -37.4746 1171.31 -31.0547 1034.43 -21.9738C991.185 -19.1036 952.55 -11.0022 915.9 2.07758C842.7 28.1125 793.966 47.3138 737.704 58.3996C670.558 71.6262 609.51 -14.274 532.494 -3.7868C478.882 3.51308 396.69 95.3638 339.622 119.228C294.402 138.237 262.866 113.05 200.032 120.049C22.027 139.88 -147.353 318.404 -147.353 318.404M1292.34 -39.4721C1292.34 -39.4721 1170.75 -35.2943 1033.32 -26.3867C990.089 -23.5878 951.351 -15.4933 914.537 -2.33365C841.055 23.8461 792.095 42.8704 735.851 53.6017C668.443 66.4801 607.429 -18.9872 530.124 -8.60677C476.366 -1.38609 394.303 89.4887 337.005 113.432C291.831 132.416 260.138 107.799 197.621 115.046C19.6651 135.682 -149.338 313.465 -149.338 313.465M1291.65 -41.471C1291.65 -41.471 1170.2 -39.5312 1032.2 -30.802C988.99 -28.0682 950.158 -19.9871 913.18 -6.75439C839.417 19.5702 790.214 38.3937 734.003 48.7983C666.332 61.3215 605.357 -23.7109 527.76 -13.4362C473.872 -6.30424 391.923 83.6043 334.4 107.644C289.273 126.603 257.424 102.559 195.226 110.05C17.3022 131.49 -151.323 308.53 -151.323 308.53M1290.96 -43.4682C1290.96 -43.4682 1169.64 -43.7634 1031.08 -35.2133C987.888 -32.5486 948.957 -24.4756 911.812 -11.1522C837.764 15.3154 788.337 33.9442 732.145 44.0109C664.205 56.1813 603.274 -28.4118 525.383 -18.2485C471.355 -11.198 389.535 77.7514 331.781 101.868C286.699 120.799 254.693 97.3347 192.82 105.067C14.9413 127.303 -153.309 303.593 -153.309 303.593M1290.26 -45.466C1290.26 -45.466 1169.09 -48.0003 1029.98 -39.6336C986.797 -37.0352 947.785 -28.977 910.459 -15.5672C836.132 11.0442 786.462 29.482 730.304 39.2083C662.099 51.0246 601.208 -33.1307 523.02 -23.0846C468.854 -16.1166 387.152 71.8515 329.174 96.0639C284.139 114.971 251.98 92.0878 190.42 100.057C12.5872 123.098 -155.282 298.643 -155.282 298.643M1289.57 -47.4768C1289.57 -47.4768 1168.53 -52.2464 1028.84 -44.0554C985.682 -41.5233 946.559 -33.4716 909.079 -19.9863C834.475 6.78143 784.577 25.0199 728.442 34.4198C659.97 45.8764 599.119 -37.8384 520.643 -27.8865C466.336 -21.0028 384.759 65.9946 326.551 90.2958C281.565 109.177 249.246 86.8649 188.01 95.0829C10.2175 118.932 -157.276 293.727 -157.276 293.727M1288.87 -49.4603C1288.87 -49.4603 1167.97 -56.4621 1027.72 -48.4519C984.57 -45.9889 945.353 -37.9475 907.709 -24.3823C832.82 2.5187 782.676 20.5672 726.577 29.6227C657.838 40.7223 597.027 -42.548 518.263 -32.7097C463.815 -25.9074 382.36 60.1204 323.924 84.5092C278.984 103.363 246.508 81.6304 185.589 90.0868C7.84492 114.757 -159.274 288.792 -159.274 288.792M1288.19 -51.466C1288.19 -51.466 1167.43 -60.7001 1026.61 -52.8712C983.488 -50.4687 944.169 -42.4441 906.358 -28.798C831.187 -1.75217 780.819 16.0918 724.737 24.8232C655.728 35.5476 594.96 -47.2666 515.904 -37.534C461.315 -30.8131 379.997 54.2366 321.319 78.7186C276.426 97.5475 243.793 76.3947 183.193 85.0884C5.49395 110.588 -161.249 283.856 -161.249 283.856M1287.49 -53.462C1287.49 -53.462 1166.87 -64.9283 1025.5 -57.2824C982.385 -54.9519 942.973 -46.9348 904.997 -33.2048C829.54 -6.0159 778.926 11.6354 722.885 20.0269C653.613 30.403 592.883 -51.9764 513.534 -42.3524C458.807 -35.7169 377.599 48.3676 318.708 72.9318C273.862 91.736 241.07 71.1668 180.793 80.0966C3.13163 106.415 -163.23 278.921 -163.23 278.921M1286.8 -55.4628C1286.8 -55.4628 1166.32 -69.1613 1024.38 -61.7013C981.278 -59.4308 941.777 -51.4292 903.63 -37.6172C827.895 -10.2845 777.056 7.1593 721.033 15.2297C651.488 25.2414 590.815 -56.6932 511.161 -47.1733C456.293 -40.6193 375.21 42.4945 316.091 67.1434C271.29 85.9202 238.344 65.9363 178.385 75.1005C0.766574 102.242 -165.219 273.982 -165.219 273.982M1286.11 -57.4623C1286.11 -57.4623 1165.77 -73.3919 1023.26 -66.115C980.188 -63.914 940.582 -55.9211 902.27 -42.0292C826.254 -14.5518 775.167 2.69633 719.184 10.4309C649.373 20.0788 588.728 -61.4039 508.799 -51.9895C453.794 -45.5151 372.833 36.6261 313.483 61.3638C268.735 80.1138 235.628 60.7174 175.998 70.1086C-1.59471 98.0798 -167.199 269.052 -167.199 269.052M1285.42 -59.4573C1285.42 -59.4573 1165.22 -77.6087 1022.14 -70.5263C979.087 -68.3916 939.384 -60.4109 900.905 -46.438C824.593 -18.8102 773.28 -1.77229 717.326 5.6366C647.251 14.9168 586.649 -66.1128 506.423 -56.8156C451.271 -50.44 370.441 30.745 310.868 55.5818C266.172 74.3049 232.902 55.4973 173.581 65.1233C-3.94977 93.9336 -169.183 264.118 -169.183 264.118M1284.73 -61.4577C1284.73 -61.4577 1164.66 -81.8461 1021.03 -74.9421C977.985 -72.8726 938.185 -64.904 899.543 -50.8484C822.954 -23.0808 771.398 -6.24361 715.474 0.839638C645.136 9.76183 584.571 -70.8261 504.052 -61.6374C448.769 -55.3299 368.053 24.8681 308.249 49.7811C263.593 68.4789 230.172 50.2584 171.171 60.1148C-6.31676 89.765 -171.172 259.172 -171.172 259.172M1284.04 -63.4567C1284.04 -63.4567 1164.1 -86.0847 1019.91 -79.3552C976.886 -77.353 936.989 -69.3965 898.178 -55.2559C821.313 -27.3457 769.528 -10.7177 713.607 -3.9627C643.006 4.58088 582.479 -75.5322 501.683 -66.4616C446.257 -60.2344 365.659 18.9991 305.634 43.9935C261.025 62.6667 227.446 45.0297 168.766 55.1194C-8.67967 85.6164 -173.153 254.248 -173.153 254.248M1283.35 -65.4546C1283.35 -65.4546 1163.55 -90.2966 1018.79 -83.7684C975.785 -81.8314 935.79 -73.887 896.814 -59.6695C819.674 -31.6166 767.637 -15.1763 711.768 -8.7519C640.883 -0.58491 580.411 -80.2464 499.311 -71.2799C443.746 -65.1352 363.281 13.1213 303.017 38.205C258.456 56.8564 224.72 39.8185 166.357 50.1299C-11.0376 81.4537 -175.151 249.318 -175.151 249.318M1282.65 -67.4508C1282.65 -67.4508 1163 -94.5222 1017.68 -88.1771C974.688 -86.3005 934.598 -78.3722 895.455 -64.0738C818.034 -35.8898 765.764 -19.6604 709.927 -13.5461C638.775 -5.75548 578.345 -84.9569 496.952 -76.0961C441.247 -70.0329 360.906 7.25006 300.414 32.4213C255.899 51.0453 222.009 34.6024 163.964 45.1385C-13.3935 77.3308 -177.12 244.372 -177.12 244.372M1281.96 -69.4506C1281.96 -69.4506 1162.44 -98.7474 1016.56 -92.5979C973.587 -90.7876 933.397 -82.8703 894.089 -68.492C816.397 -40.1539 763.868 -24.1421 708.081 -18.3515C636.66 -10.9362 576.271 -89.6774 494.588 -80.9264C438.743 -74.9445 358.526 1.3648 297.804 26.6248C253.338 45.2231 219.29 29.3735 161.566 40.133C-15.7599 73.1893 -179.109 239.443 -179.109 239.443M1281.27 -71.4493C1281.27 -71.4493 1161.89 -102.968 1015.44 -97.0106C972.487 -95.2637 932.198 -87.3615 892.727 -72.9004C814.734 -44.4166 761.993 -28.6206 706.214 -23.1438C634.531 -16.1071 574.179 -94.3833 492.202 -85.7437C436.219 -79.8444 356.126 -4.50181 295.175 20.843C250.753 39.4178 216.554 24.1621 159.147 35.1434C-18.1287 69.0597 -181.093 234.511 -181.093 234.511M1280.58 -73.4412C1280.58 -73.4412 1161.34 -107.174 1014.32 -101.433C971.378 -99.763 931.002 -91.8636 891.355 -77.3183C813.084 -48.6907 760.097 -33.1042 704.356 -27.9495C632.395 -21.2887 572.095 -99.0984 489.826 -90.5714C433.703 -84.7535 353.733 -10.3845 292.555 15.048C248.181 33.5941 213.823 18.9387 156.733 30.1417C-20.4797 64.9234 -183.089 229.579 -183.089 229.579M1279.89 -75.4458C1279.89 -75.4458 1160.78 -111.413 1013.21 -105.839C970.286 -104.219 929.807 -96.3464 889.999 -81.7223C811.446 -52.9499 758.22 -37.5789 702.511 -32.7372C630.279 -26.4615 570.024 -103.803 487.462 -95.384C431.201 -89.6487 351.353 -16.2522 289.947 9.26787C245.62 27.7894 211.106 13.733 154.337 25.1595C-22.8382 60.8029 -185.067 224.644 -185.067 224.644M1279.19 -77.4435C1279.19 -77.4435 1160.23 -115.629 1012.09 -110.254C969.186 -108.695 928.611 -100.838 888.636 -86.1327C809.802 -57.2155 756.335 -42.059 700.656 -37.5332C628.158 -31.6407 567.944 -108.512 485.093 -100.203C428.691 -94.5492 348.967 -22.1264 287.334 3.48136C243.053 21.9783 208.384 8.52385 151.932 20.1624C-25.1933 56.6825 -187.043 219.713 -187.043 219.713M1278.5 -79.4422C1278.5 -79.4422 1159.68 -119.85 1010.97 -114.668C968.088 -113.172 927.413 -105.329 887.274 -90.5412C808.158 -61.4821 754.449 -46.54 698.805 -42.3284C626.036 -36.8209 565.867 -113.223 482.724 -105.027C426.185 -99.4391 346.58 -28.0015 284.717 -2.30494C240.485 16.1634 205.661 3.31088 149.527 15.1671C-27.5505 52.565 -189.03 214.772 -189.03 214.772M1277.81 -81.4405C1277.81 -81.4405 1159.12 -124.068 1009.85 -119.081C966.988 -117.649 926.217 -109.822 885.903 -94.9499C806.502 -65.7448 752.562 -51.0246 696.943 -47.1238C623.904 -42.0013 563.782 -117.932 480.337 -109.841C423.655 -104.347 344.177 -33.8677 282.085 -8.08642C237.9 10.3573 202.923 -1.89036 147.102 10.179C-29.9087 48.4538 -191.027 209.84 -191.027 209.84M1277.12 -83.4416C1277.12 -83.4416 1158.57 -128.285 1008.74 -123.495C965.888 -122.125 925.018 -114.313 884.546 -99.3631C804.866 -70.0143 750.673 -55.5069 695.101 -51.9218C621.792 -47.1884 561.709 -122.642 477.984 -114.668C421.162 -109.255 341.808 -39.749 279.489 -13.8801C235.339 4.54342 200.218 -7.10671 144.715 5.17753C-32.2659 44.3368 -193 204.901 -193 204.901M1276.43 -85.4399C1276.43 -85.4399 1158 -132.495 1007.62 -127.907C964.784 -126.609 923.834 -118.809 883.189 -103.76C803.227 -74.266 748.812 -59.9838 693.254 -56.705C619.677 -52.3606 559.64 -127.339 475.633 -119.481C418.671 -114.147 339.439 -45.6137 276.895 -19.6582C232.784 -1.26978 197.504 -12.3129 142.317 0.199985C-34.6157 40.2468 -194.987 199.96 -194.987 199.96M1275.73 -87.4442C1275.73 -87.4442 1157.46 -136.722 1006.49 -132.321C963.671 -131.077 922.611 -123.297 881.804 -108.185C801.561 -78.5469 746.905 -64.4861 691.38 -61.5174C617.518 -57.5593 557.538 -132.064 473.226 -124.31C416.127 -119.059 337.019 -51.4988 274.25 -25.4567C230.204 -7.0898 194.763 -17.519 139.896 -4.81184C-36.9679 36.1509 -196.968 195.033 -196.968 195.033M1275.04 -89.4363C1275.04 -89.4363 1156.91 -140.931 1005.39 -136.738C962.587 -135.553 921.429 -127.788 880.45 -112.591C799.924 -82.8103 745.03 -68.9719 689.536 -66.3094C615.42 -62.7527 555.47 -136.77 470.864 -129.127C413.624 -123.957 334.641 -57.3678 271.635 -31.2377C227.639 -12.8965 192.045 -22.7179 137.491 -9.8006C-39.3309 32.0617 -198.965 190.102 -198.965 190.102M1274.35 -91.4331C1274.35 -91.4331 1156.34 -145.151 1004.26 -141.149C961.483 -140.024 920.227 -132.279 879.087 -117.002C798.28 -87.0771 743.15 -73.4651 687.686 -71.1087C613.299 -67.9469 553.393 -141.481 468.497 -133.948C411.117 -128.86 332.253 -63.2558 269.024 -37.0265C225.073 -18.7128 189.33 -27.9208 135.084 -14.795C-41.6683 27.9694 -200.938 185.162 -200.938 185.162M1273.66 -93.4326C1273.66 -93.4326 1155.81 -149.347 1003.15 -145.564C960.389 -144.502 919.035 -136.771 877.73 -121.415C796.642 -91.3444 741.277 -77.9561 685.844 -75.899C611.19 -73.137 551.323 -146.184 466.134 -138.766C408.604 -133.759 329.882 -69.1087 266.425 -42.8181C222.521 -24.529 186.623 -33.1253 132.7 -19.7966C-44.0185 23.8873 -202.922 180.228 -202.922 180.228M1272.97 -95.4321C1272.97 -95.4321 1155.25 -153.558 1002.03 -149.979C959.288 -148.98 917.839 -141.265 876.367 -125.828C795.001 -95.6042 739.397 -82.4412 683.98 -80.7014C609.057 -78.3381 549.235 -150.9 463.755 -143.592C406.095 -138.663 327.481 -74.9939 263.793 -48.6008C219.936 -30.3363 183.892 -38.3076 130.278 -24.7842C-46.3703 19.8185 -204.927 175.301 -204.927 175.301M1272.28 -97.4297C1272.28 -97.4297 1154.7 -157.777 1000.92 -154.392C958.185 -153.463 916.641 -145.755 874.994 -130.231C793.342 -99.874 737.501 -86.9402 682.123 -85.4932C606.933 -83.5327 547.153 -155.605 461.383 -148.41C403.583 -143.56 325.093 -80.8638 261.176 -54.3889C217.364 -36.1519 181.163 -43.5173 127.862 -29.7934C-48.7109 15.7355 -206.902 170.363 -206.902 170.363M1271.59 -99.432C1271.59 -99.432 1154.15 -161.991 999.805 -158.811C957.095 -157.931 915.453 -150.251 873.648 -134.659C791.714 -104.157 735.636 -91.4527 680.287 -90.3078C604.832 -88.7414 545.09 -160.315 459.023 -153.237C401.087 -148.467 322.718 -86.7436 258.571 -60.177C214.809 -41.9658 178.458 -48.7177 125.475 -34.7761C-51.0524 11.6679 -208.876 165.423 -208.876 165.423M1270.89 -101.428C1270.89 -101.428 1153.59 -166.195 998.692 -163.227C955.998 -162.406 914.257 -154.744 872.288 -139.062C790.073 -108.416 733.76 -95.9416 678.439 -95.1047C602.713 -93.9497 543.032 -165.045 456.662 -158.068C398.586 -153.379 320.338 -92.6353 255.966 -65.9753C212.245 -47.803 175.748 -53.9231 123.08 -39.7821C-53.3869 7.6006 -210.861 160.487 -210.861 160.487M1270.2 -103.426C1270.2 -103.426 1153.03 -170.403 997.562 -167.645C954.873 -166.879 913.047 -159.241 870.91 -143.478C788.417 -112.678 731.864 -100.442 676.575 -99.8987C600.579 -99.1521 540.927 -169.746 454.279 -162.887C396.062 -158.279 317.941 -98.5034 253.34 -71.7615C209.668 -53.6081 173.019 -59.1147 120.666 -44.7675C-55.7364 3.54599 -212.844 155.554 -212.844 155.554M1269.51 -105.424C1269.51 -105.424 1152.48 -174.611 996.446 -172.049C953.787 -171.351 911.855 -163.725 869.552 -147.878C786.773 -116.944 729.988 -104.933 674.726 -104.688C598.476 -104.353 538.854 -174.446 451.912 -167.698C393.556 -163.169 315.558 -104.37 250.729 -77.5401C207.106 -59.4056 170.304 -64.2977 118.264 -49.7637C-58.0721 -0.506861 -214.841 150.623 -214.841 150.623M1268.82 -107.422C1268.82 -107.422 1151.92 -178.813 995.336 -176.448C952.694 -175.809 910.662 -168.2 868.195 -152.274C785.134 -121.196 728.111 -109.417 672.88 -109.468C596.35 -109.54 536.78 -179.141 449.534 -172.514C391.041 -168.065 313.171 -110.237 248.11 -83.3146C204.536 -65.199 167.585 -69.4747 115.85 -54.7409C-60.4082 -4.55202 -216.814 145.684 -216.814 145.684M1268.12 -109.42C1268.12 -109.42 1151.37 -183.018 994.206 -180.873C951.581 -180.293 909.455 -172.705 866.821 -156.697C783.476 -125.473 726.22 -113.928 671.016 -114.278C594.219 -114.77 534.69 -183.86 447.165 -177.338C388.532 -172.97 310.784 -116.115 245.493 -89.1107C201.97 -71.015 164.866 -74.6761 113.445 -59.7458C-62.7394 -8.59345 -218.798 140.749 -218.798 140.749M1267.43 -111.418C1267.43 -111.418 1150.82 -187.221 993.095 -185.292C950.488 -184.769 908.262 -177.198 865.461 -161.11C781.838 -129.742 724.345 -118.433 669.171 -119.075C592.114 -119.976 532.614 -188.569 444.816 -182.166C386.04 -177.875 308.416 -121.994 242.896 -94.9047C199.415 -76.8481 162.161 -79.8596 111.046 -64.7432C-65.0723 -12.6309 -220.782 135.816 -220.782 135.816M1266.75 -113.408C1266.75 -113.408 1150.27 -191.417 991.977 -189.702C949.39 -189.239 907.068 -181.688 864.099 -165.518C780.193 -134.008 722.463 -122.932 667.32 -123.87C589.994 -125.184 530.542 -193.275 442.433 -186.984C383.517 -182.775 306.015 -127.87 240.27 -100.69C196.849 -82.6474 159.444 -85.0553 108.639 -69.7373C-67.4003 -16.6636 -222.778 130.885 -222.778 130.885M1266.05 -115.417C1266.05 -115.417 1149.71 -195.628 990.86 -194.12C948.286 -193.716 905.868 -186.183 862.736 -169.931C778.547 -138.279 720.586 -127.442 665.463 -128.672C587.875 -130.4 528.462 -197.988 440.062 -191.806C381.007 -187.675 303.631 -133.741 237.656 -106.477C194.27 -88.4733 156.729 -90.24 106.234 -74.7342C-69.7294 -20.6912 -224.752 125.944 -224.752 125.944M1265.36 -117.416C1265.36 -117.416 1149.16 -199.826 989.748 -198.533C947.191 -198.188 904.676 -190.675 861.377 -174.342C776.907 -142.545 718.712 -131.944 663.615 -133.466C585.773 -135.622 526.381 -202.701 437.692 -196.627C378.501 -192.573 301.245 -139.614 235.04 -112.244C191.709 -94.2688 154.013 -95.4072 103.828 -79.7067C-72.0508 -24.7075 -226.736 121.01 -226.736 121.01M1264.67 -119.415C1264.67 -119.415 1148.6 -204.027 988.626 -202.945C946.083 -202.659 903.474 -195.165 860.01 -178.752C775.256 -146.81 716.824 -136.465 661.759 -138.263C583.643 -140.832 524.308 -207.402 435.324 -201.441C375.991 -197.472 298.859 -145.487 232.427 -118.046C189.137 -100.093 151.306 -100.604 101.439 -84.7216C-74.3681 -28.712 -228.719 116.08 -228.719 116.08M1263.98 -121.413C1263.98 -121.413 1148.05 -208.224 987.499 -207.354C944.977 -207.125 902.267 -199.652 858.636 -183.152C773.603 -151.065 714.945 -140.947 659.899 -143.047C581.529 -146.051 522.238 -212.112 432.952 -206.266C373.481 -202.372 296.475 -151.355 229.812 -123.835C186.563 -105.908 148.585 -105.787 99.0192 -89.7134C-76.6881 -32.7337 -230.716 111.147 -230.716 111.147M1263.28 -123.411C1263.28 -123.411 1147.49 -212.425 986.388 -211.781C943.886 -211.603 901.08 -204.156 857.281 -187.577C771.962 -155.358 713.072 -145.471 658.053 -147.862C579.411 -151.274 520.15 -216.817 430.583 -211.082C370.967 -207.284 294.088 -157.231 227.2 -129.618C184.003 -111.717 145.884 -110.967 96.6163 -94.704C-79.0056 -36.7388 -232.689 106.206 -232.689 106.206M1262.59 -125.41C1262.59 -125.41 1146.94 -216.623 985.274 -216.19C942.787 -216.076 899.884 -208.642 855.92 -191.983C770.324 -159.61 711.198 -149.973 656.205 -152.652C577.298 -156.497 518.072 -221.525 428.214 -215.909C368.461 -212.174 291.699 -163.112 224.584 -135.411C181.433 -117.535 143.172 -116.151 94.2063 -99.7137C-81.3173 -40.7382 -234.674 101.27 -234.674 101.27M1261.9 -127.412C1261.9 -127.412 1146.38 -220.82 984.154 -220.606C941.685 -220.549 898.69 -213.129 854.556 -196.398C768.678 -163.88 709.32 -154.487 654.351 -157.453C575.185 -161.724 516.006 -226.053 425.844 -220.729C365.959 -216.957 289.313 -168.988 221.97 -141.199C178.865 -123.351 140.462 -121.33 91.806 -104.698C-83.6269 -44.7323 -236.662 96.3258 -236.662 96.3258M1261.21 -129.408C1261.21 -129.408 1145.83 -225.01 983.039 -225.017C940.587 -225.02 897.49 -217.626 853.191 -200.805C767.032 -168.142 707.448 -158.993 652.499 -162.248C573.072 -166.948 513.925 -230.766 423.489 -225.542C363.465 -221.851 286.958 -174.859 219.369 -146.979C176.312 -129.152 137.769 -126.499 89.4156 -109.682C-85.9325 -48.7243 -238.654 91.4061 -238.654 91.4061M1260.51 -131.406C1260.51 -131.406 1145.27 -229.208 981.92 -229.43C939.485 -229.489 896.294 -222.118 851.828 -205.217C765.387 -172.409 705.558 -163.5 650.652 -167.032C570.971 -172.169 511.858 -235.468 421.106 -230.361C360.944 -226.753 284.544 -180.727 216.742 -152.765C173.733 -134.966 135.05 -131.674 87.0014 -114.667C-88.2367 -52.7038 -240.628 86.466 -240.628 86.466M1259.82 -133.404C1259.82 -133.404 1144.72 -233.398 980.802 -233.849C938.383 -233.964 895.095 -226.609 850.466 -209.627C763.742 -176.678 703.695 -168.018 648.786 -171.841C568.842 -177.402 509.761 -240.188 418.725 -235.193C358.421 -231.668 282.147 -186.61 214.117 -158.564C171.155 -140.79 132.33 -136.861 84.5826 -119.683C-90.5324 -56.6787 -242.612 81.5312 -242.612 81.5312M1259.13 -135.402C1259.13 -135.402 1144.16 -237.591 979.688 -238.259C937.298 -238.435 893.9 -231.1 849.105 -214.035C762.1 -180.941 701.821 -172.529 646.945 -176.635C566.738 -182.638 507.694 -244.899 416.365 -240.012C355.925 -236.558 279.771 -192.485 211.513 -164.351C168.598 -146.602 129.636 -142.034 82.1881 -124.678C-92.8298 -60.6497 -244.595 76.5994 -244.595 76.5994M1258.44 -137.4C1258.44 -137.4 1143.61 -241.782 978.569 -242.673C936.185 -242.901 892.701 -235.592 847.741 -218.447C760.452 -185.207 699.953 -177.032 645.101 -181.438C564.636 -187.877 505.622 -249.617 414.011 -244.843C353.43 -241.48 277.401 -198.368 208.916 -170.146C166.046 -152.424 126.948 -147.216 79.7987 -129.676C-95.1073 -64.6203 -246.592 71.6675 -246.592 71.6675M1257.75 -139.399C1257.75 -139.399 1143.05 -245.972 977.453 -247.087C935.083 -247.373 891.506 -240.085 846.376 -222.857C758.808 -189.473 698.074 -181.558 643.237 -186.231C562.514 -193.109 503.532 -254.326 411.62 -249.658C350.897 -246.379 274.994 -204.238 206.27 -175.924C163.447 -158.226 124.212 -152.377 77.3501 -134.658C-97.409 -68.5769 -248.565 66.7278 -248.565 66.7278M1257.07 -141.403C1257.07 -141.403 1142.52 -250.165 976.349 -251.505C934 -251.849 890.325 -244.582 845.029 -227.271C757.178 -193.745 696.216 -186.079 641.4 -191.032C560.423 -198.347 501.471 -259.04 409.268 -254.481C348.402 -251.283 272.618 -210.11 203.68 -181.717C160.895 -164.041 121.535 -157.555 74.9843 -139.664C-99.6887 -72.519 -250.55 61.7925 -250.55 61.7925M1256.37 -143.397C1256.37 -143.397 1141.94 -254.35 975.217 -255.917C932.883 -256.316 889.11 -249.072 843.655 -231.666C755.523 -197.995 694.332 -190.578 639.537 -195.813C558.299 -203.581 499.365 -263.742 406.882 -259.3C345.879 -256.184 270.222 -215.983 201.051 -187.5C158.323 -169.856 118.816 -162.721 72.5647 -144.655C-101.972 -76.4776 -252.534 56.859 -252.534 56.859M1255.67 -145.394C1255.67 -145.394 1141.39 -258.528 974.099 -260.33C931.784 -260.782 887.914 -253.567 842.288 -236.089C753.875 -202.273 692.459 -195.106 637.682 -200.62C556.192 -208.819 497.299 -268.46 404.513 -264.119C343.368 -261.085 267.836 -221.858 198.434 -193.295C155.753 -175.676 116.114 -167.899 70.1572 -149.658C-104.248 -80.4206 -254.53 51.9283 -254.53 51.9283M1254.98 -147.393C1254.98 -147.393 1140.83 -262.724 972.983 -264.744C930.683 -265.252 886.717 -258.052 840.925 -240.5C752.228 -206.539 690.585 -199.625 635.829 -205.418C554.085 -214.062 495.219 -273.171 402.136 -268.937C340.854 -265.988 265.444 -227.731 195.817 -199.072C153.183 -181.477 113.411 -173.057 67.7471 -154.642C-106.519 -84.3567 -256.503 46.9881 -256.503 46.9881M1254.29 -149.39C1254.29 -149.39 1140.28 -266.907 971.867 -269.157C929.581 -269.723 885.522 -262.543 839.561 -244.906C750.584 -210.804 688.716 -204.141 633.978 -210.212C551.979 -219.303 493.142 -277.881 399.773 -273.758C338.349 -270.891 263.065 -233.604 193.218 -204.864C150.63 -187.297 110.725 -178.226 65.3586 -159.638C-108.788 -88.2884 -258.487 42.0539 -258.487 42.0539M1253.6 -151.391C1253.6 -151.391 1139.73 -271.09 970.76 -273.573C928.493 -274.193 884.332 -267.047 838.21 -249.322C748.94 -215.07 686.847 -208.664 632.12 -215.017C549.872 -224.557 491.058 -282.602 397.398 -278.589C335.835 -275.803 260.675 -239.487 190.59 -210.655C148.051 -193.114 108.017 -183.399 62.9423 -164.638C-111.034 -92.2199 -260.471 37.1218 -260.471 37.1218M1252.91 -153.374C1252.91 -153.374 1139.17 -275.258 969.638 -277.971C927.385 -278.646 883.133 -271.514 836.84 -253.717C747.3 -219.325 684.981 -213.169 630.277 -219.791C547.772 -229.792 488.985 -287.304 395.032 -283.4C333.33 -280.697 258.295 -245.354 187.979 -216.433C145.487 -198.916 105.325 -188.547 60.5322 -169.631C-113.308 -96.1307 -262.461 32.2057 -262.461 32.2057M1252.21 -155.388C1252.21 -155.388 1138.6 -279.453 968.507 -282.397C926.274 -283.126 881.923 -276.016 835.467 -258.139C745.644 -223.604 683.103 -217.7 628.413 -224.6C545.666 -235.032 486.898 -292.014 392.655 -288.219C330.812 -285.6 255.902 -251.228 185.36 -222.217C142.913 -204.727 102.622 -193.716 58.1286 -174.615C-115.562 -100.048 -264.441 27.2502 -264.441 27.2502M1251.52 -157.386C1251.52 -157.386 1138.06 -283.638 967.397 -286.813C925.179 -287.597 880.734 -280.51 834.105 -262.556C744.001 -227.877 681.239 -222.229 626.565 -229.405C543.565 -240.296 484.825 -296.732 390.291 -293.05C328.308 -290.51 253.519 -257.11 182.749 -228.014C140.349 -210.55 99.9275 -198.89 55.7268 -179.62C-117.809 -103.956 -266.424 22.3183 -266.424 22.3183M1250.83 -159.385C1250.83 -159.385 1137.49 -287.815 966.278 -291.226C924.078 -292.067 879.538 -285.003 832.745 -266.96C742.363 -232.127 679.373 -226.745 624.716 -234.195C541.464 -245.542 482.743 -301.44 387.923 -297.866C325.796 -295.415 251.136 -262.978 180.137 -233.797C137.784 -216.357 97.2359 -204.047 53.3297 -184.596C-120.038 -107.862 -268.409 17.3819 -268.409 17.3819M1250.14 -161.382C1250.14 -161.382 1136.94 -292.008 965.163 -295.639C922.979 -296.533 878.34 -289.493 831.383 -271.37C740.706 -236.401 677.507 -231.268 622.863 -238.992C539.365 -250.789 480.67 -306.151 385.553 -302.685C323.288 -300.309 248.75 -268.852 177.52 -239.582C135.216 -222.171 94.5457 -209.208 50.9211 -189.602C-122.291 -111.751 -270.405 12.4521 -270.405 12.4521M1249.45 -163.381C1249.45 -163.381 1136.39 -296.173 964.047 -300.053C921.88 -300.996 877.144 -293.986 830.02 -275.781C739.067 -240.67 675.641 -235.793 621.012 -243.787C537.263 -256.046 478.59 -310.862 383.189 -307.507C320.785 -305.217 246.369 -274.729 174.912 -245.372C132.654 -227.985 91.8636 -214.358 48.5196 -194.598C-124.525 -115.645 -272.378 7.51194 -272.378 7.51194M1248.76 -165.38C1248.76 -165.38 1135.83 -300.359 962.928 -304.467C920.777 -305.472 875.946 -298.477 828.657 -280.193C737.429 -244.939 673.776 -240.316 619.16 -248.586C535.167 -261.306 476.512 -315.576 380.812 -312.328C318.269 -310.117 243.977 -280.602 172.297 -251.146C130.086 -233.784 89.1671 -219.519 46.1136 -199.58C-126.753 -119.528 -274.362 2.579 -274.362 2.579M1248.05 -167.374C1248.05 -167.374 1135.26 -304.526 961.802 -308.88C919.668 -309.935 874.741 -302.966 827.288 -284.612C735.783 -249.218 671.906 -244.849 617.304 -253.392C533.07 -266.559 474.427 -320.298 378.437 -317.159C315.754 -315.03 241.586 -286.486 169.674 -256.956C127.511 -239.623 86.4685 -224.701 43.7057 -204.6C-128.968 -123.396 -276.347 -2.35638 -276.347 -2.35638M1247.37 -169.376C1247.37 -169.376 1134.73 -308.707 960.696 -313.296C918.58 -314.408 873.555 -307.461 825.933 -289.012C734.138 -253.47 670.051 -249.364 615.459 -258.179C530.971 -271.816 472.355 -324.997 376.078 -321.969C313.26 -319.913 239.211 -292.351 167.071 -262.734C124.955 -245.425 83.7927 -229.852 41.3073 -209.58C-131.19 -127.283 -278.342 -7.28652 -278.342 -7.28652M1246.68 -171.376C1246.68 -171.376 1134.15 -312.562 959.576 -317.711C917.472 -318.801 872.355 -311.954 824.566 -293.424C732.49 -257.737 668.195 -253.895 613.6 -262.977C528.88 -277.07 470.277 -329.711 373.701 -326.789C310.738 -324.826 236.817 -298.226 164.447 -268.52C122.381 -251.236 81.1004 -235.01 38.8932 -214.574C-133.402 -131.152 -280.317 -12.2285 -280.317 -12.2285M1245.99 -173.372C1245.99 -173.372 1133.6 -316.784 958.46 -322.119C916.373 -323.275 871.162 -316.441 823.205 -297.831C730.847 -261.999 666.322 -258.412 611.751 -267.767C526.782 -282.333 468.198 -334.419 371.334 -331.608C308.243 -329.731 234.433 -304.096 161.835 -274.302C119.814 -257.046 78.4147 -240.169 36.4907 -219.564C-135.608 -135.014 -282.299 -17.1588 -282.299 -17.1588M1245.3 -175.373C1245.3 -175.373 1133.05 -321.013 957.348 -326.539C915.279 -327.761 869.967 -320.938 821.847 -302.248C729.205 -266.27 664.466 -262.945 609.903 -272.571C524.695 -287.603 466.126 -339.136 368.966 -336.442C305.728 -334.635 232.046 -309.971 159.221 -280.09C117.255 -262.862 75.7398 -245.325 34.0859 -224.56C-137.807 -138.869 -284.284 -22.095 -284.284 -22.095M1244.61 -177.369C1244.61 -177.369 1132.49 -325.233 956.225 -330.952C914.172 -332.237 868.752 -325.422 820.477 -306.652C727.555 -270.533 662.6 -267.469 608.048 -277.357C522.601 -292.856 464.054 -343.842 366.595 -341.245C303.204 -339.547 229.653 -315.83 156.606 -285.88C114.679 -268.673 73.0401 -250.477 31.6805 -229.558C-140 -142.722 -286.28 -27.0252 -286.28 -27.0252M1243.91 -179.369C1243.91 -179.369 1131.93 -329.457 955.106 -335.366C913.069 -336.72 867.567 -329.92 819.114 -311.062C725.907 -274.81 660.74 -271.994 606.194 -282.159C520.501 -298.126 461.963 -348.556 364.221 -346.075C300.706 -344.441 227.269 -321.731 153.992 -291.668C112.106 -274.498 70.3666 -255.637 29.2736 -234.55C-142.187 -146.569 -288.254 -31.9663 -288.254 -31.9663M1243.22 -181.367C1243.22 -181.367 1131.38 -333.694 953.99 -339.781C911.967 -341.199 866.371 -334.413 817.75 -315.476C724.266 -279.068 658.889 -276.584 604.342 -286.957C518.435 -303.486 459.882 -353.27 361.847 -350.907C298.184 -349.355 224.882 -327.609 151.37 -297.466C109.538 -280.313 67.7159 -260.74 26.8767 -239.568C-144.223 -150.129 -290.238 -36.8992 -290.238 -36.8992M1242.53 -183.368C1242.53 -183.368 1071.85 -419.471 816.388 -319.887C574.458 -225.579 520.026 -359.423 359.481 -355.715C107.019 -349.909 -292.222 -41.8344 -292.222 -41.8344" stroke="#0058A1" stroke-opacity="0.07" stroke-miterlimit="10"/>
</svg>
