<svg width="1320" height="77" viewBox="0 0 1320 77" fill="none" xmlns="http://www.w3.org/2000/svg">
<mask id="mask0_25031_29590" style="mask-type:alpha" maskUnits="userSpaceOnUse" x="0" y="0" width="1320" height="77">
<rect y="0.550781" width="1320" height="76" rx="38" fill="#E6EEF6"/>
</mask>
<g mask="url(#mask0_25031_29590)">
<path d="M-29.0194 711.874C-29.0194 711.874 155.598 497.902 336.451 510.077C412.747 515.214 437.81 565.107 485.053 544.37C532.296 523.634 619.842 386.099 667.407 374.75C731.924 359.347 793.724 465.735 850.343 437.771C934.271 396.324 980.578 357.478 1115.47 337.971C1228.29 321.654 1355.77 214.936 1355.77 214.936M1355.09 212.873C1355.09 212.873 1227.75 317.303 1114.36 333.417C1070.45 339.702 1035.82 348.092 1006.16 358.052C944.791 378.652 905.086 405.207 848.5 432.824C791.616 460.399 729.847 354.5 665.037 369.781C617.336 381.041 529.911 517.581 482.445 538.419C435.247 559.127 410.038 509.844 334.052 504.942C153.276 493.663 -31.0023 706.792 -31.0023 706.792M1354.4 210.813C1354.4 210.813 1227.19 312.945 1113.25 328.866C1069.35 335.083 1034.63 343.462 1004.8 353.509C943.144 374.249 903.276 400.754 846.647 427.88C789.579 455.218 727.77 349.644 662.669 364.81C614.818 375.979 527.527 511.532 479.823 532.441C432.669 553.125 407.329 504.286 331.642 499.78C150.978 489.029 -32.9877 701.703 -32.9877 701.703M1353.7 208.754C1353.7 208.754 1226.63 308.593 1112.13 324.318C1068.25 330.467 1033.43 338.833 1003.43 348.962C941.502 369.858 901.439 396.222 844.796 422.938C787.504 449.959 725.689 344.787 660.299 359.842C612.311 370.936 525.138 505.471 477.218 526.483C430.116 547.139 404.627 498.83 329.246 494.638C148.666 484.597 -34.9726 696.616 -34.9726 696.616M1353.01 206.694C1353.01 206.694 1226.08 304.24 1111.01 319.768C1067.15 325.851 1032.23 334.203 1002.07 344.416C939.844 365.467 899.601 391.687 842.944 417.992C785.428 444.697 723.612 339.931 657.929 354.874C609.803 365.884 522.752 499.419 474.595 520.511C427.539 541.139 401.904 493.351 326.828 489.488C146.351 480.166 -36.955 691.535 -36.955 691.535M1352.32 204.635C1352.32 204.635 1225.49 299.627 1109.9 315.22C1066.04 321.136 1031.03 329.575 1000.7 339.87C938.203 361.068 897.759 387.15 841.092 413.047C783.352 439.439 721.533 335.076 655.559 349.907C607.292 360.829 520.366 493.364 471.981 514.547C424.972 535.149 399.198 487.907 324.427 484.339C144.038 475.739 -38.9406 686.445 -38.9406 686.445M1351.63 202.575C1351.63 202.575 1224.92 295.23 1108.78 310.671C1064.94 316.499 1029.84 324.944 999.341 335.323C936.564 356.668 895.917 382.613 839.246 408.12C781.279 434.193 719.46 330.232 653.194 344.95C604.787 355.792 517.985 487.323 469.373 508.596C422.411 529.173 396.493 482.459 322.026 479.199C141.72 471.309 -40.9253 681.358 -40.9253 681.358M1350.94 200.516C1350.94 200.516 1224.37 290.826 1107.66 306.123C1063.85 311.859 1028.65 320.311 997.98 330.781C934.926 352.27 894.075 378.074 837.389 403.161C779.193 428.915 717.372 325.364 650.818 339.969C602.27 350.733 515.599 481.268 466.751 502.618C419.837 523.166 393.776 476.989 319.618 474.043C139.401 466.884 -42.9096 676.272 -42.9096 676.272M1350.25 198.457C1350.25 198.457 1223.81 286.427 1106.54 301.571C1062.73 307.231 1027.44 315.686 996.617 326.234C933.288 347.87 892.229 373.534 835.534 398.219C777.113 423.655 715.298 320.507 648.448 335C599.762 345.67 513.208 475.201 464.137 496.653C417.255 517.181 391.065 471.532 317.202 468.898C137.08 462.462 -44.8976 671.176 -44.8976 671.176M1349.55 196.396C1349.55 196.396 1223.24 282.015 1105.43 297.02C1061.63 302.597 1026.25 311.054 995.255 321.699C931.636 343.487 890.387 369.006 833.686 393.285C775.033 418.4 713.225 315.661 646.081 330.04C597.256 340.628 510.825 469.156 461.526 490.698C414.706 511.195 388.355 466.091 314.811 463.76C134.757 458.036 -46.8786 666.1 -46.8786 666.1M1348.86 194.336C1348.86 194.336 1222.68 277.628 1104.31 292.472C1060.52 297.963 1025.05 306.425 993.888 317.14C929.987 339.078 888.532 364.444 831.83 388.331C772.945 413.126 711.14 310.791 643.709 325.059C594.734 335.564 508.435 463.089 458.908 484.722C412.134 505.19 385.638 460.627 312.402 458.6C132.434 453.619 -48.8632 661.013 -48.8632 661.013M1348.16 192.279C1348.16 192.279 1222.12 273.233 1103.18 287.926C1059.42 293.333 1023.85 301.798 992.518 312.599C928.335 334.687 886.678 359.911 829.969 383.388C770.852 407.863 709.054 305.938 641.33 320.094C592.223 330.512 506.048 457.033 456.285 478.76C409.558 499.202 382.916 455.178 309.989 453.454C130.111 449.201 -50.848 655.925 -50.848 655.925M1347.48 190.218C1347.48 190.218 1221.57 268.835 1102.07 283.375C1058.32 288.698 1022.66 297.167 991.164 308.051C926.699 330.284 884.837 355.365 828.126 378.441C768.774 402.597 706.984 301.081 638.97 315.124C589.723 325.454 503.663 450.982 453.678 472.794C407 493.21 380.21 449.725 307.591 448.305C127.784 444.79 -52.8321 650.84 -52.8321 650.84M1346.79 188.158C1346.79 188.158 1221.01 264.439 1100.96 278.822C1057.22 284.063 1021.46 292.535 989.804 303.503C925.058 325.885 882.987 350.817 826.277 373.497C766.688 397.328 704.909 296.224 636.607 310.15C587.222 320.398 501.288 444.922 451.073 466.825C404.44 487.213 377.503 444.274 305.195 443.152C125.454 440.371 -54.8158 645.756 -54.8158 645.756M1346.1 186.109C1346.1 186.109 1220.45 260.055 1099.84 274.286C1056.12 279.446 1020.27 287.919 988.44 298.969C923.412 321.501 881.144 346.276 824.422 368.552C764.596 392.061 702.826 291.367 634.228 305.184C584.701 315.346 498.893 438.869 448.45 460.863C401.864 481.225 374.78 438.829 302.783 438.01C123.126 435.958 -56.8007 640.668 -56.8007 640.668M1345.41 184.035C1345.41 184.035 1219.89 255.645 1098.72 269.726C1055.01 274.817 1019.06 283.279 987.067 294.413C921.757 317.094 879.273 341.724 822.565 363.612C762.5 386.79 700.743 286.513 631.852 300.219C582.187 310.295 496.5 432.816 445.824 454.885C399.285 475.222 372.052 433.372 300.367 432.849C120.793 431.548 -58.7856 635.581 -58.7856 635.581M1344.71 181.975C1344.71 181.975 1219.33 251.255 1097.6 265.175C1053.91 270.17 1017.87 278.647 985.707 289.857C920.115 312.685 877.418 337.16 820.714 358.655C760.411 381.515 698.676 281.641 629.481 295.23C579.675 305.22 494.113 426.74 443.215 448.914C396.721 469.223 369.339 427.923 297.964 427.695C118.461 427.144 -60.7705 630.493 -60.7705 630.493M1344.02 179.915C1344.02 179.915 1218.77 246.862 1096.49 260.626C1052.81 265.54 1016.67 274.016 984.348 285.319C918.473 308.293 875.568 332.619 818.864 353.723C758.322 376.255 696.563 276.653 627.116 290.277C577.151 300.081 491.734 420.705 440.605 442.968C394.161 463.25 366.63 422.496 295.566 422.564C116.126 422.738 -62.7541 625.409 -62.7541 625.409M1343.33 177.855C1343.33 177.855 1218.21 242.469 1095.37 256.076C1051.71 260.909 1015.48 269.386 982.985 280.772C916.826 303.897 873.701 328.068 817.011 348.777C756.229 370.983 694.483 271.788 624.749 285.307C574.642 295.021 489.348 414.649 437.991 437.002C391.594 457.259 363.914 417.055 293.161 417.415C113.792 418.334 -64.7389 620.322 -64.7389 620.322M1342.64 175.796C1342.64 175.796 1217.65 238.079 1094.25 251.525C1050.61 256.283 1014.28 264.757 981.62 276.227C915.182 299.5 871.852 323.511 815.159 343.832C754.133 365.712 692.404 266.926 622.379 280.339C572.132 289.963 486.961 408.594 435.371 431.04C389.02 451.268 361.19 411.618 290.751 412.27C111.453 413.934 -66.7234 615.235 -66.7234 615.235M1341.95 173.737C1341.95 173.737 1217.1 233.692 1093.14 246.976C1049.51 251.653 1013.08 260.129 980.258 271.684C913.544 295.118 869.993 318.954 813.308 338.891C752.038 360.438 690.325 262.065 620.009 275.37C569.622 284.905 484.575 402.539 432.761 425.067C386.456 445.271 358.479 406.18 288.348 407.115C109.126 409.533 -68.7077 610.149 -68.7077 610.149M1341.25 171.678C1341.25 171.678 1216.54 229.302 1092.02 242.429C1048.41 247.027 1011.89 255.514 978.895 267.138C911.894 290.706 868.13 314.398 811.456 333.946C749.952 355.16 688.246 257.203 617.638 270.402C567.111 279.85 482.19 396.487 430.149 419.109C383.891 439.287 355.758 400.742 285.947 401.976C106.777 405.143 -70.6859 605.081 -70.6859 605.081M1340.56 169.618C1340.56 169.618 1215.98 224.899 1090.9 237.878C1047.29 242.4 1010.69 250.868 977.532 262.59C910.249 286.307 866.269 309.837 809.598 329.005C747.837 349.892 686.161 252.342 615.267 265.447C564.599 274.804 479.816 390.439 427.534 413.157C381.321 433.306 353.039 395.318 283.552 396.835C104.436 400.748 -72.6765 599.978 -72.6765 599.978M1339.87 167.557C1339.87 167.557 1215.42 220.524 1089.78 233.329C1046.2 237.768 1009.49 246.241 976.166 258.043C908.602 281.91 864.405 305.276 807.751 324.056C745.736 344.601 684.087 247.477 612.897 260.464C562.093 269.739 477.416 384.374 424.918 407.177C378.755 427.3 350.331 389.863 281.137 391.676C102.099 396.372 -74.6616 594.889 -74.6616 594.889M1339.18 165.497C1339.18 165.497 1214.87 216.138 1088.67 228.777C1045.1 233.133 1008.3 241.617 974.805 253.5C906.958 277.513 862.541 300.715 805.909 319.111C743.651 339.333 682.017 242.612 610.535 255.49C559.587 264.672 475.038 378.316 422.325 401.205C376.208 421.303 347.61 384.432 278.75 386.521C99.7486 391.97 -76.6459 589.803 -76.6459 589.803M1338.49 163.439C1338.49 163.439 1214.31 211.745 1087.55 224.229C1044 228.516 1007.1 236.982 973.442 248.955C905.314 273.117 860.677 296.154 804.049 314.171C741.54 334.059 679.921 237.758 608.16 250.526C557.069 259.618 472.645 372.268 419.693 395.255C373.631 415.321 344.883 379.014 276.329 381.391C97.4052 387.586 -78.629 584.721 -78.629 584.721M1337.79 161.378C1337.79 161.378 1213.75 207.368 1086.43 219.678C1042.9 223.887 1005.9 232.351 972.079 244.406C903.669 268.717 858.811 291.587 802.193 309.224C739.437 328.778 677.85 232.891 605.789 245.555C554.56 254.56 470.258 366.211 417.075 389.279C371.055 409.325 342.158 373.575 273.922 376.234C95.0587 383.203 -80.6144 579.631 -80.6144 579.631M1337.1 159.318C1337.1 159.318 1213.2 202.986 1085.32 215.129C1041.8 219.261 1004.72 227.72 970.717 239.862C902.026 264.323 856.945 287.022 800.342 304.285C737.333 323.497 675.771 228.029 603.424 240.583C552.053 249.5 467.877 360.153 414.467 383.312C368.494 403.332 339.437 368.13 271.523 371.084C92.71 378.823 -82.5992 574.545 -82.5992 574.545M1336.41 157.258C1336.41 157.258 1212.65 198.6 1084.21 210.578C1040.71 214.634 1003.51 223.089 969.359 235.31C900.386 259.92 855.086 282.448 798.498 299.334C735.238 318.212 673.696 223.152 601.057 235.614C549.547 244.443 465.487 354.099 411.853 377.347C365.928 397.338 336.726 362.718 269.118 365.936C90.3648 374.452 -84.5828 569.461 -84.5828 569.461M1335.72 155.2C1335.72 155.2 1212.1 194.218 1083.08 206.032C1039.6 210.012 1002.31 218.462 967.989 230.77C898.734 255.527 853.208 277.885 796.641 294.404C733.128 312.94 671.615 218.311 598.682 230.658C547.032 239.397 463.102 348.054 409.234 371.394C363.356 391.36 334.005 357.314 266.709 360.8C88.0212 370.094 -86.564 564.383 -86.564 564.383M1335.03 153.14C1335.03 153.14 1211.53 189.841 1081.97 201.477C1038.51 205.383 1001.12 213.827 966.635 226.22C897.095 251.117 851.349 273.31 794.794 289.446C731.028 307.643 669.543 213.443 596.317 225.678C544.523 234.324 460.722 341.989 406.626 365.417C360.794 385.357 331.284 351.868 264.311 355.642C85.6642 365.7 -88.552 559.287 -88.552 559.287M1334.34 151.08C1334.34 151.08 1210.97 185.466 1080.85 196.932C1037.4 200.763 999.917 209.203 965.264 221.677C895.445 246.732 849.468 268.741 792.934 284.508C728.911 302.36 667.459 208.594 593.937 220.711C542.008 229.277 458.322 335.926 404.003 359.456C358.215 379.369 328.554 346.451 261.898 350.497C83.3116 361.336 -90.5365 554.201 -90.5365 554.201M1333.64 149.02C1333.64 149.02 1210.41 181.084 1079.72 192.385C1036.28 196.14 998.706 204.578 963.889 217.134C893.786 242.339 847.587 264.17 791.07 279.566C726.79 297.077 665.37 203.741 591.555 215.746C539.498 224.217 455.948 329.878 401.387 353.486C355.644 373.361 325.828 341.026 259.489 345.345C80.9559 356.964 -92.5103 549.108 -92.5103 549.108M1332.95 146.958C1332.95 146.958 1209.86 176.706 1078.61 187.833C1035.19 191.512 997.52 199.937 962.536 212.587C892.154 237.938 845.726 259.59 789.228 274.614C724.693 291.78 663.298 198.863 589.198 210.77C536.985 219.16 453.552 323.823 398.771 347.523C353.079 367.377 323.108 335.608 257.084 340.197C78.6054 352.605 -94.5053 544.029 -94.5053 544.029M1332.26 144.898C1332.26 144.898 1209.3 172.327 1077.5 183.284C1034.1 186.892 996.327 195.313 961.173 208.04C890.509 233.54 843.853 255.015 787.378 269.675C722.579 286.496 661.214 194.006 586.83 205.805C534.478 214.107 451.168 317.774 396.158 341.561C350.516 361.396 320.386 330.194 254.681 335.052C76.2521 348.248 -96.4898 538.942 -96.4898 538.942M1331.57 142.837C1331.57 142.837 1208.75 167.952 1076.38 178.735C1032.99 182.267 995.128 190.684 959.81 203.493C888.865 229.142 841.979 250.435 785.526 264.729C720.473 281.201 659.142 189.145 584.458 200.834C531.98 209.046 448.784 311.717 393.544 335.595C347.95 355.41 317.663 324.776 252.278 329.906C73.8955 343.891 -98.4747 533.855 -98.4747 533.855M1330.89 140.772C1330.89 140.772 1208.21 163.57 1075.27 174.177C1031.9 177.638 993.939 186.036 958.458 198.94C887.232 224.739 840.105 245.855 783.683 259.782C718.373 275.902 657.075 184.28 582.099 195.86C529.468 203.99 446.408 305.652 390.941 329.624C345.397 349.42 314.949 319.357 249.881 324.752C71.5399 339.536 -100.459 528.769 -100.459 528.769M1330.18 138.718C1330.18 138.718 1207.64 159.202 1074.14 169.633C1030.79 173.019 992.734 181.424 957.093 194.395C885.582 220.344 838.24 241.266 781.828 254.838C716.258 270.609 654.994 179.422 579.727 190.893C526.957 198.935 444.02 299.601 388.328 323.66C342.812 343.417 312.228 313.946 247.477 319.604C69.1947 335.182 -102.418 523.687 -102.418 523.687M1329.49 136.659C1329.49 136.659 1207.08 154.829 1073.03 165.085C1029.69 168.401 991.539 176.794 955.725 189.869C883.933 215.96 836.351 236.708 779.972 249.912C714.142 265.33 652.909 174.58 577.352 185.939C524.447 193.894 441.629 293.562 385.704 317.713C340.249 337.439 309.496 308.551 245.066 314.473C66.8275 330.841 -104.427 518.597 -104.427 518.597M1328.8 134.599C1328.8 134.599 1206.53 150.452 1071.91 160.535C1028.59 163.771 990.34 172.165 954.357 185.31C882.285 211.553 834.481 232.107 778.115 244.955C712.024 260.019 650.827 169.709 574.977 180.959C521.928 188.828 439.239 287.498 383.085 311.736C337.677 331.437 306.769 303.131 242.648 309.316C64.4667 326.5 -106.413 513.51 -106.413 513.51M1328.11 132.539C1328.11 132.539 1205.97 146.085 1070.79 155.987C1027.49 159.156 989.141 167.536 952.994 180.763C880.64 207.153 832.599 227.524 776.263 240.009C709.908 254.722 648.748 164.847 572.607 175.99C519.419 183.772 436.847 281.444 380.474 305.769C335.112 325.442 304.059 297.715 240.252 304.164C62.113 322.159 -108.391 508.43 -108.391 508.43M1327.42 130.482C1327.42 130.482 1205.42 141.716 1069.67 151.436C1026.39 154.537 987.946 162.908 951.641 176.215C879.005 202.754 830.737 222.933 774.421 235.065C707.803 249.419 646.68 159.99 570.249 171.02C516.917 178.716 434.478 275.391 377.867 299.804C332.551 319.451 301.332 292.312 237.855 299.018C59.7504 317.821 -110.381 503.337 -110.381 503.337M1326.73 128.418C1326.73 128.418 1204.86 137.343 1068.55 146.885C1025.29 149.913 986.75 158.274 950.267 171.672C877.348 198.358 828.846 218.343 772.559 230.12C705.678 244.115 644.592 155.131 567.868 166.049C514.397 173.657 432.079 269.33 375.243 293.839C329.974 313.461 298.589 286.913 235.441 293.87C57.3902 313.489 -112.361 498.262 -112.361 498.262M1326.04 126.359C1326.04 126.359 1204.31 132.976 1067.44 142.336C1024.19 145.294 985.554 153.644 948.904 167.126C875.704 193.961 826.97 213.752 770.708 225.178C703.562 238.811 642.514 150.272 565.498 161.081C511.887 168.606 429.694 263.278 372.627 287.876C327.406 307.468 295.87 281.508 233.037 288.721C55.0314 309.161 -114.348 493.169 -114.348 493.169M1325.34 124.3C1325.34 124.3 1203.76 128.606 1066.32 137.787C1023.09 140.672 984.356 149.015 947.541 162.579C874.06 189.563 825.099 209.172 768.856 220.233C701.447 233.507 640.434 145.414 563.128 156.113C509.37 163.556 427.308 257.222 370.009 281.902C324.835 301.468 293.142 276.096 230.626 283.565C52.6695 304.834 -116.334 488.079 -116.334 488.079M1324.65 122.24C1324.65 122.24 1203.2 124.239 1065.21 133.236C1021.99 136.054 983.163 144.384 946.184 158.023C872.421 185.156 823.218 204.558 767.007 215.282C699.336 228.19 638.361 140.545 560.764 151.136C506.876 158.487 424.927 251.157 367.405 275.936C322.277 295.477 290.428 270.695 228.231 278.415C50.3066 300.514 -118.319 482.992 -118.319 482.992M1323.96 120.181C1323.96 120.181 1202.65 119.877 1064.09 128.69C1020.89 131.436 981.962 139.757 944.817 153.49C870.768 180.77 821.341 199.971 765.149 210.347C697.21 222.892 636.279 135.7 558.387 146.175C504.359 153.443 422.539 245.124 364.785 269.981C319.703 289.494 287.697 265.309 225.824 273.28C47.9457 296.198 -120.304 477.904 -120.304 477.904M1323.27 118.122C1323.27 118.122 1202.09 115.51 1062.98 124.133C1019.8 126.812 980.789 135.117 943.463 148.939C869.136 176.368 819.467 195.372 763.309 205.397C695.104 217.577 634.212 130.836 556.024 141.191C501.858 148.373 420.157 239.043 362.178 263.999C317.143 283.487 284.984 259.901 223.424 268.115C45.5915 291.864 -122.278 472.802 -122.278 472.802M1322.57 116.049C1322.57 116.049 1201.53 111.133 1061.85 119.576C1018.69 122.186 979.563 130.485 942.084 144.384C867.48 171.974 817.581 190.773 761.446 200.462C692.974 212.27 632.123 125.984 553.648 136.241C499.34 143.337 417.764 233.006 359.555 258.054C314.57 277.515 282.25 254.518 221.014 262.988C43.2219 287.57 -124.272 467.734 -124.272 467.734M1321.87 114.005C1321.87 114.005 1200.97 106.788 1060.72 115.044C1017.57 117.583 978.357 125.871 940.714 139.853C865.824 167.581 815.68 186.184 759.581 195.517C690.842 206.958 630.031 121.13 551.267 131.27C496.819 138.281 415.365 226.952 356.928 252.09C311.989 271.523 279.513 249.123 218.593 257.839C40.8493 283.267 -126.269 462.648 -126.269 462.648M1321.19 111.938C1321.19 111.938 1200.43 102.42 1059.62 110.489C1016.49 112.965 977.173 121.237 939.362 135.302C864.191 163.179 813.823 181.571 757.741 190.57C688.732 201.624 627.964 116.266 548.908 126.298C494.32 133.225 413.001 220.887 354.323 246.121C309.43 265.529 276.797 243.726 216.197 252.687C38.4983 278.969 -128.244 457.561 -128.244 457.561M1320.5 109.88C1320.5 109.88 1199.88 98.0617 1058.5 105.942C1015.39 108.345 975.978 116.608 938.001 130.76C862.544 158.784 811.93 176.977 755.889 185.627C686.617 196.322 625.888 111.411 546.538 121.331C491.811 128.17 410.603 214.838 351.712 240.157C306.866 259.539 274.074 238.338 213.797 247.542C36.136 274.668 -130.226 452.474 -130.226 452.474M1319.81 107.818C1319.81 107.818 1199.32 93.6987 1057.38 101.388C1014.28 103.728 974.782 111.975 936.635 126.212C860.9 154.384 810.06 172.364 754.038 180.682C684.493 191.001 623.819 106.55 544.165 116.362C489.297 123.117 408.215 208.784 349.095 234.191C304.294 253.544 271.348 232.946 211.389 242.392C33.771 270.367 -132.215 447.383 -132.215 447.383M1319.12 105.757C1319.12 105.757 1198.77 89.3381 1056.27 96.8386C1013.19 99.1071 973.586 107.346 935.275 121.664C859.258 149.986 808.171 167.764 752.188 175.736C682.377 185.68 621.732 101.694 541.803 111.398C486.799 118.071 405.837 202.736 346.487 228.233C301.739 247.559 268.632 227.567 209.002 237.247C31.4097 266.077 -134.195 442.301 -134.195 442.301M1318.42 103.701C1318.42 103.701 1198.22 84.9918 1055.15 92.2917C1012.09 94.492 972.388 102.718 933.91 117.12C857.597 145.597 806.284 163.158 750.33 170.794C680.256 180.36 619.653 96.8407 539.427 106.424C484.276 112.995 403.445 196.674 343.872 222.274C299.176 241.572 265.906 222.187 206.585 232.108C29.0546 261.804 -136.179 437.216 -136.179 437.216M1317.73 101.639C1317.73 101.639 1197.66 80.6242 1054.03 87.7403C1010.99 89.8734 971.189 98.0868 932.547 112.574C855.958 141.195 804.402 158.549 748.479 165.85C678.14 175.046 617.575 91.9827 537.056 101.454C481.773 107.955 401.058 190.617 341.253 216.295C296.597 235.567 263.176 216.787 204.175 226.946C26.6876 257.507 -138.168 432.118 -138.168 432.118M1317.04 99.5785C1317.04 99.5785 1197.1 76.2553 1052.91 83.1916C1009.89 85.2553 969.993 93.4563 931.182 108.031C854.317 136.799 802.532 153.938 746.611 160.9C676.011 169.706 615.484 87.132 534.688 96.4812C479.261 102.9 398.663 184.567 338.639 210.33C294.03 229.576 260.45 211.398 201.77 221.797C24.3247 253.231 -140.148 427.042 -140.148 427.042M1316.35 97.5192C1316.35 97.5192 1196.55 71.9141 1051.8 78.6428C1008.79 80.6394 968.795 88.8278 929.819 103.482C852.678 132.397 800.642 149.342 744.772 155.964C673.888 164.382 613.416 82.2731 532.315 91.5149C476.751 97.8484 396.286 178.509 336.021 204.363C291.46 223.588 257.724 206.026 199.362 216.654C21.9668 248.941 -142.147 421.962 -142.147 421.962M1315.66 95.4617C1315.66 95.4617 1196 67.5586 1050.68 74.0987C1007.69 76.0329 967.602 84.2047 928.459 98.9425C851.038 127.992 798.768 144.72 742.931 151.022C671.779 159.052 611.349 77.4178 529.957 86.5508C474.252 92.8003 393.911 172.457 333.419 198.402C288.903 217.598 255.013 200.65 196.969 211.51C19.6109 244.691 -144.116 416.863 -144.116 416.863M1314.97 93.4004C1314.97 93.4004 1195.45 63.2037 1049.56 69.5421C1006.59 71.408 966.401 79.5685 927.093 94.3885C849.402 123.597 796.873 140.101 741.086 146.069C669.664 153.712 609.275 72.5522 527.593 81.5721C471.747 87.7378 391.53 166.391 330.808 192.427C286.342 211.597 252.294 195.26 194.57 206.35C17.2445 240.422 -146.105 411.783 -146.105 411.783M1314.27 91.3404C1314.27 91.3404 1194.89 58.8529 1048.44 64.9938C1005.49 66.7944 965.202 74.9394 925.731 89.8447C847.739 119.203 794.998 135.485 739.219 141.13C667.535 148.383 607.184 67.7018 525.207 76.6068C469.224 82.6874 389.13 160.344 328.179 186.468C283.757 205.613 249.558 189.889 192.151 201.208C14.8757 236.166 -148.088 406.699 -148.088 406.699M1313.58 89.2873C1313.58 89.2873 1194.35 54.5179 1047.32 60.4352C1004.38 62.1568 964.006 70.2989 924.36 85.2911C846.088 114.798 793.101 130.863 737.36 136.176C665.4 143.042 605.099 62.8418 522.831 71.6309C466.707 77.6275 386.738 154.281 325.559 180.495C281.186 199.611 246.828 184.505 189.738 196.052C12.5246 231.902 -150.085 401.617 -150.085 401.617M1312.89 87.2211C1312.89 87.2211 1193.79 50.1491 1046.21 55.8944C1003.29 57.5637 962.811 65.6784 923.003 80.7518C844.45 110.408 791.225 126.251 735.515 131.242C663.284 137.71 603.028 57.9932 520.467 66.6703C464.206 72.5819 384.357 148.233 322.952 174.537C278.625 193.628 244.11 179.139 187.341 190.917C10.1662 227.655 -152.063 396.53 -152.063 396.53M1312.2 85.162C1312.2 85.162 1193.23 45.8032 1045.09 51.3439C1002.19 52.9508 961.616 61.049 921.641 76.2058C842.806 106.011 789.339 121.634 733.66 126.298C661.162 132.372 600.949 53.1391 518.097 61.7032C461.695 67.5308 381.971 142.178 320.338 168.573C276.058 187.638 241.389 173.77 184.936 185.766C7.81107 223.408 -154.039 391.447 -154.039 391.447M1311.51 83.1019C1311.51 83.1019 1192.68 41.4524 1043.98 46.7944C1001.09 48.336 960.417 56.4199 920.279 71.6619C841.162 101.614 787.454 117.015 731.809 121.356C659.04 127.033 598.872 48.2829 515.729 56.731C459.189 62.4907 379.585 136.123 317.721 162.609C273.489 181.644 238.665 168.397 182.531 180.618C5.45389 219.164 -156.026 386.354 -156.026 386.354M1310.81 81.0422C1310.81 81.0422 1192.13 37.1048 1042.86 42.2451C999.992 43.7215 959.221 51.7888 918.907 67.1178C839.506 97.22 785.567 112.392 729.948 116.413C656.908 121.693 596.786 43.4294 513.341 51.769C456.659 57.4318 377.182 130.076 315.09 156.65C270.905 175.66 235.927 163.036 180.106 175.476C3.09572 214.927 -158.022 381.271 -158.022 381.271M1310.12 78.9796C1310.12 78.9796 1191.57 32.7586 1041.74 37.696C998.892 39.1082 958.023 47.1601 917.55 62.569C837.87 92.8194 783.677 107.772 728.105 111.468C654.796 116.347 594.713 38.5754 510.988 46.7945C454.166 52.3733 374.812 124.014 312.493 150.678C268.343 169.668 233.222 157.66 177.719 170.321C0.738483 210.683 -159.996 376.18 -159.996 376.18M1309.43 76.9199C1309.43 76.9199 1191.01 28.4198 1040.62 33.1481C997.789 34.4861 956.839 42.5256 916.193 58.0374C836.232 88.4371 781.816 103.158 726.258 106.538C652.681 111.015 592.645 33.7334 508.637 41.8329C451.676 47.3308 372.443 117.97 309.899 144.722C265.789 163.676 230.508 152.293 175.322 165.191C-1.61137 206.468 -161.982 371.087 -161.982 371.087M1308.74 74.8541C1308.74 74.8541 1190.46 24.0628 1039.49 28.5985C996.676 29.8812 955.615 37.8999 914.808 53.4757C834.565 84.0247 779.909 98.5175 724.384 101.577C650.522 105.657 590.543 28.8635 506.231 36.8557C449.132 42.2685 370.023 111.904 307.254 138.746C263.208 157.677 227.768 146.927 172.901 160.025C-3.96356 202.246 -163.964 366.009 -163.964 366.009M1308.05 72.8008C1308.05 72.8008 1189.91 19.7245 1038.39 24.0458C995.592 25.2673 954.433 33.2705 913.454 48.935C832.929 79.6303 778.035 93.8939 722.54 96.6382C648.424 100.304 588.475 24.0135 503.868 31.8909C446.629 37.2198 367.645 105.854 304.64 132.787C260.643 151.692 225.05 141.569 170.495 154.883C-6.32657 198.031 -165.96 360.926 -165.96 360.926M1307.35 70.7427C1307.35 70.7427 1189.35 15.375 1037.27 19.4994C994.487 20.6586 953.232 28.6422 912.091 44.3879C831.285 75.2325 776.154 89.2626 720.691 91.6914C646.304 94.9504 586.398 19.157 501.501 26.9213C444.121 32.1663 365.257 99.7856 302.029 126.821C258.078 145.697 222.334 136.206 168.088 149.735C-8.66394 193.813 -167.933 355.835 -167.933 355.835M1306.67 68.6817C1306.67 68.6817 1188.81 11.05 1036.16 14.949C993.393 16.044 952.039 24.0121 910.735 39.8402C829.647 70.8341 774.282 84.6337 718.848 86.754C644.195 89.6008 584.328 14.31 499.138 21.9553C441.608 27.1168 362.886 93.7529 299.43 120.851C255.525 139.702 219.627 130.842 165.704 144.58C-11.0142 189.606 -169.918 350.749 -169.918 350.749M1305.97 66.6208C1305.97 66.6208 1188.25 6.70939 1035.04 10.3985C992.292 11.4282 950.843 19.3798 909.371 35.2913C828.005 66.4434 772.401 80.0108 716.984 81.8041C642.061 84.2399 582.239 9.44929 496.76 16.9816C439.1 22.0617 360.486 87.6869 296.798 114.891C252.94 133.716 216.896 125.5 163.283 139.439C-13.3659 185.412 -171.922 345.671 -171.922 345.671M1305.28 64.5618C1305.28 64.5618 1187.7 2.36085 1033.92 5.85012C991.189 6.80676 949.645 14.7517 907.998 30.753C826.346 62.0425 770.505 75.3736 715.127 76.865C639.937 78.8858 580.158 4.59944 494.387 12.0158C436.588 17.0149 358.098 81.6366 294.18 108.925C250.368 127.722 214.167 120.13 160.866 134.276C-15.7065 181.203 -173.898 340.581 -173.898 340.581M1304.6 62.498C1304.6 62.498 1187.15 -1.98253 1032.81 1.29504C990.099 2.20234 948.458 10.1177 906.652 26.189C824.719 57.6278 768.64 70.7225 713.292 71.9025C637.837 73.517 578.094 -0.255621 492.027 7.0399C434.091 11.9569 355.722 75.5762 291.576 102.959C247.813 121.73 211.462 114.77 158.479 129.14C-18.048 177.011 -175.871 335.489 -175.871 335.489M1303.9 60.4407C1303.9 60.4407 1186.59 -6.31641 1031.7 -3.25627C989.002 -2.41017 947.262 5.48673 905.292 21.6504C823.077 53.2385 766.765 66.0956 711.443 66.9583C635.717 68.1488 576.037 -5.13057 489.666 2.06059C431.59 6.89371 353.343 69.5036 288.971 96.9825C245.25 115.713 208.752 109.405 156.084 123.98C-20.3825 172.819 -177.856 330.402 -177.856 330.402M1303.2 58.3814C1303.2 58.3814 1186.04 -10.6535 1030.57 -7.81056C987.877 -7.02108 946.051 0.851672 903.915 17.0988C821.422 48.845 764.869 61.4569 709.579 62.017C633.583 62.7865 573.931 -9.9757 487.283 -2.90627C429.067 1.84292 350.946 63.4552 286.344 91.0186C242.672 109.73 206.024 104.054 153.67 118.842C-22.732 168.639 -179.84 325.317 -179.84 325.317M1302.51 56.3215C1302.51 56.3215 1185.48 -14.9901 1029.45 -12.3499C986.792 -11.6303 944.859 -3.76957 902.556 12.564C819.777 44.4476 762.992 56.8279 707.73 57.0807C631.48 57.4263 571.858 -14.8199 484.917 -7.8653C426.56 -3.19706 348.563 57.4087 283.733 85.0624C240.11 103.754 203.309 98.7117 151.268 113.692C-25.0677 164.462 -181.836 320.235 -181.836 320.235M1301.82 54.2625C1301.82 54.2625 1184.93 -19.3217 1028.34 -16.8836C985.698 -16.2252 943.666 -8.38295 901.199 8.03291C818.139 40.0658 761.115 52.2068 705.884 52.1541C629.355 52.0791 569.784 -19.6591 482.538 -12.829C424.045 -8.24286 346.176 51.3612 281.114 79.1105C237.54 97.7827 200.589 93.3756 148.854 108.562C-27.4038 160.293 -183.809 315.144 -183.809 315.144M1301.13 52.2036C1301.13 52.2036 1184.38 -23.6554 1027.21 -21.4446C984.585 -20.8474 942.459 -13.0259 899.825 3.47347C816.48 35.6568 759.224 47.5562 704.021 47.1962C627.224 46.689 567.694 -24.5237 480.17 -17.8012C421.537 -13.299 343.788 45.3027 278.497 73.1364C234.975 91.788 197.871 88.0144 146.449 103.403C-29.735 156.127 -185.794 310.057 -185.794 310.057M1300.44 50.1434C1300.44 50.1434 1183.82 -27.9879 1026.1 -25.9994C983.492 -25.4604 941.267 -17.6572 898.465 -1.07444C814.842 31.2571 757.349 42.9129 702.175 42.2515C625.118 41.3228 565.619 -29.3769 477.82 -22.7772C419.045 -18.3548 341.42 39.2432 275.9 67.1644C232.419 85.7757 195.165 82.6717 144.051 98.2524C-32.0679 151.966 -187.777 304.973 -187.777 304.973M1299.75 48.0923C1299.75 48.0923 1183.27 -32.3127 1024.98 -30.5448C982.394 -30.0682 940.072 -22.2846 897.104 -5.61833C813.198 26.8595 755.467 38.2761 700.324 37.3091C622.999 35.9553 563.547 -34.2283 475.437 -27.7437C416.521 -23.4052 339.02 33.1865 273.274 61.2009C229.854 79.7983 192.449 77.3164 141.643 93.105C-34.3959 147.809 -189.774 299.891 -189.774 299.891M1299.06 46.0215C1299.06 46.0215 1182.71 -36.6531 1023.86 -35.0991C981.291 -34.6826 938.872 -26.9184 895.74 -10.1669C811.552 22.4572 753.59 33.628 698.467 32.3601C620.879 30.5788 561.466 -39.0851 473.067 -32.7136C414.011 -28.456 336.635 27.1351 270.661 55.2369C227.275 73.7934 189.733 71.9724 139.238 87.9545C-36.725 143.658 -191.747 294.797 -191.747 294.797M1298.36 43.9619C1298.36 43.9619 1182.16 -40.9804 1022.75 -39.6476C980.195 -39.2922 937.68 -31.5477 894.381 -14.7127C809.911 18.0607 751.716 28.9869 696.619 27.4188C618.778 25.1965 559.385 -43.9439 470.696 -37.6824C411.506 -33.504 334.249 21.0817 268.044 49.2921C224.714 67.8198 187.018 66.6464 136.832 82.8293C-39.0465 139.518 -193.731 289.712 -193.731 289.712M1297.67 41.9014C1297.67 41.9014 1181.61 -45.3105 1021.63 -44.1953C979.087 -43.9 936.478 -36.1762 893.015 -19.2589C808.261 13.6649 749.828 24.3276 694.764 22.474C616.647 19.8259 557.312 -48.7887 468.328 -42.645C408.996 -38.5535 331.863 15.0286 265.431 43.3123C222.142 61.8169 184.311 61.2902 134.443 77.6603C-41.3638 135.39 -195.714 284.631 -195.714 284.631M1296.98 39.842C1296.98 39.842 1181.05 -49.6364 1020.5 -48.7395C977.981 -48.5036 935.272 -40.8012 891.64 -23.7934C806.608 9.27858 747.949 19.7074 692.904 17.5428C614.534 14.4468 555.243 -53.6434 465.956 -47.6183C406.486 -43.6047 329.48 8.97981 262.817 37.3449C219.567 55.8234 181.589 55.948 132.024 72.5151C-43.6838 131.245 -197.711 279.546 -197.711 279.546M1296.29 37.7819C1296.29 37.7819 1180.5 -53.966 1019.39 -53.3025C976.89 -53.1189 934.085 -45.4432 890.285 -28.3549C804.967 4.85451 746.076 15.0446 691.058 12.5798C612.415 9.06383 553.155 -58.4932 463.588 -52.5816C403.971 -48.6669 327.092 2.9231 260.204 31.3845C217.007 49.8353 178.888 50.6088 129.621 67.3712C-46.0012 127.117 -199.685 274.453 -199.685 274.453M1295.59 35.7218C1295.59 35.7218 1179.94 -58.2927 1018.28 -57.8462C975.791 -57.7297 932.888 -50.0664 888.925 -32.8958C803.328 0.471739 744.203 10.4042 689.209 7.64329C610.303 3.67975 551.076 -63.3454 461.218 -57.5568C401.465 -53.707 324.704 -3.1384 257.588 25.4133C214.438 43.8388 176.176 45.2654 127.211 62.2077C-48.3129 122.995 -201.67 269.366 -201.67 269.366M1294.9 33.6583C1294.9 33.6583 1179.39 -62.6187 1017.16 -62.398C974.689 -62.3398 931.695 -54.6914 887.561 -37.4463C801.682 -3.92938 742.324 5.75159 687.355 2.6945C608.189 -1.70768 549.01 -68.0123 458.848 -62.5254C398.964 -58.6372 322.317 -9.19445 254.974 19.4476C211.869 37.8448 173.466 39.9274 124.81 57.0704C-50.6225 118.878 -203.658 264.269 -203.658 264.269M1294.21 31.601C1294.21 31.601 1178.83 -66.9373 1016.04 -66.9448C973.591 -66.9478 930.494 -59.3266 886.196 -41.9891C800.036 -8.32295 740.452 1.10689 685.504 -2.24816C606.077 -7.09194 546.929 -72.8705 456.494 -67.4864C396.469 -63.6821 319.962 -15.2456 252.373 13.4906C209.316 31.8654 170.773 34.6 122.42 51.933C-52.9281 114.763 -205.65 259.199 -205.65 259.199M1293.52 29.5419C1293.52 29.5419 1178.28 -71.2642 1014.92 -71.4935C972.49 -71.5546 929.298 -63.9571 884.833 -46.5362C798.392 -12.7208 738.563 -3.53798 683.657 -7.17892C603.975 -12.4737 544.862 -77.7173 454.111 -72.4531C393.948 -68.7338 317.548 -21.2941 249.746 7.52683C206.738 25.8721 168.055 29.2657 120.006 46.7946C-55.2323 110.662 -207.623 254.107 -207.623 254.107M1292.83 27.4825C1292.83 27.4825 1177.72 -75.5831 1013.81 -76.0482C971.387 -76.1665 928.1 -68.5856 883.47 -51.0824C796.747 -17.1206 736.699 -8.1952 681.79 -12.135C601.846 -17.8672 542.766 -82.582 451.73 -77.433C391.426 -73.8007 315.152 -27.3585 247.121 1.54978C204.159 19.8697 165.335 23.9193 117.587 41.6252C-57.528 106.565 -209.608 249.02 -209.608 249.02M1292.14 25.4232C1292.14 25.4232 1177.17 -79.9048 1012.69 -80.594C970.302 -80.7751 926.904 -73.2151 882.109 -55.6255C795.104 -21.5144 734.825 -12.8448 679.949 -17.0771C599.742 -23.264 540.699 -87.4378 449.37 -82.4008C388.93 -78.8405 312.775 -33.4137 244.518 -4.41509C201.602 13.8794 162.64 18.5869 115.193 36.4768C-59.8254 102.472 -211.591 243.937 -211.591 243.937M1291.44 23.3634C1291.44 23.3634 1176.61 -84.2252 1011.57 -85.1433C969.189 -85.378 925.706 -77.8452 880.746 -60.1733C793.456 -25.9118 732.958 -17.4854 678.105 -22.0268C597.641 -28.6635 538.626 -92.3002 447.015 -87.3796C386.434 -83.9133 310.406 -39.477 241.92 -10.3881C199.051 7.87812 159.952 13.2465 112.803 31.3245C-62.1029 98.3792 -213.588 238.854 -213.588 238.854M1290.75 21.3036C1290.75 21.3036 1176.06 -88.5435 1010.46 -89.6927C968.088 -89.9875 924.51 -82.4753 879.38 -64.7188C791.812 -30.3092 731.078 -22.1504 676.241 -26.9674C595.518 -34.0569 536.537 -97.1545 444.624 -92.3424C383.902 -88.963 307.998 -45.5273 239.274 -16.3434C196.451 1.89739 157.216 7.92656 110.355 26.1903C-64.4046 94.301 -215.561 233.762 -215.561 233.762M1290.08 19.2379C1290.08 19.2379 1175.52 -92.8657 1009.35 -94.2466C967.004 -94.6008 923.329 -87.1112 878.033 -69.2682C790.183 -34.7123 729.22 -26.8105 674.405 -31.9154C593.427 -39.4559 534.475 -102.013 442.273 -97.3143C381.407 -94.0176 305.623 -51.5802 236.684 -22.3146C193.899 -4.09578 154.539 2.58965 107.989 21.0299C-66.6843 90.2378 -217.545 228.675 -217.545 228.675M1289.37 17.1826C1289.37 17.1826 1174.95 -97.1793 1008.22 -98.7943C965.887 -99.2056 922.114 -91.7386 876.66 -73.7984C788.528 -39.0932 727.337 -31.4483 672.541 -36.8441C591.304 -44.8504 532.369 -106.859 439.887 -102.281C378.883 -99.0689 303.227 -57.6332 234.055 -28.275C191.328 -10.0891 151.821 -2.73528 105.569 15.886C-68.9674 86.1576 -219.529 223.59 -219.529 223.59M1288.68 15.1241C1288.68 15.1241 1174.4 -101.485 1007.1 -103.342C964.788 -103.809 920.918 -96.3715 875.293 -78.3568C786.879 -43.5023 725.463 -36.1154 670.686 -41.798C589.196 -50.2494 530.303 -111.722 437.517 -107.248C376.373 -104.121 300.841 -63.6884 231.438 -34.2488C188.757 -16.0882 149.118 -8.07175 103.162 10.7288C-71.2439 82.0934 -221.525 218.508 -221.525 218.508M1287.99 13.0637C1287.99 13.0637 1173.84 -105.81 1005.99 -107.892C963.687 -108.416 919.721 -100.995 873.93 -82.9039C785.232 -47.899 723.589 -40.7732 668.833 -46.7437C587.09 -55.6531 528.223 -116.578 435.141 -112.214C373.858 -109.175 298.448 -69.7419 228.822 -40.2031C186.188 -22.0679 146.416 -13.3887 100.751 5.59218C-73.5148 78.0364 -223.499 213.416 -223.499 213.416M1287.29 11.005C1287.29 11.005 1173.28 -110.121 1004.87 -112.44C962.585 -113.024 918.526 -105.624 872.565 -87.4453C783.588 -52.2952 721.72 -45.4275 666.983 -51.6848C584.984 -61.0552 526.146 -121.433 432.777 -117.183C371.354 -114.228 296.069 -75.7955 226.223 -46.1727C183.634 -28.0658 143.729 -18.717 98.363 0.442058C-75.7839 73.984 -225.483 208.33 -225.483 208.33M1286.6 8.94243C1286.6 8.94243 1172.73 -114.433 1003.76 -116.993C961.497 -117.632 917.336 -110.266 871.214 -91.9963C781.944 -56.6923 719.851 -50.0897 665.124 -56.6374C582.876 -66.4711 524.062 -126.299 430.403 -122.163C368.839 -119.291 293.679 -81.8594 223.594 -52.1417C181.055 -34.0614 141.022 -24.048 95.9467 -4.71157C-78.0298 69.9316 -227.466 203.247 -227.466 203.247M1285.92 6.89875C1285.92 6.89875 1172.18 -118.729 1002.64 -121.526C960.39 -122.222 916.137 -114.871 869.845 -96.5263C780.305 -61.0776 717.986 -54.7331 663.281 -61.5587C580.776 -71.8664 521.989 -131.146 428.036 -127.122C366.335 -124.335 291.299 -87.9068 220.984 -58.0976C178.491 -40.0426 138.33 -29.3547 93.5366 -9.85748C-80.3041 65.9007 -229.457 198.18 -229.457 198.18M1285.22 4.82267C1285.22 4.82267 1171.61 -123.053 1001.51 -126.088C959.278 -126.839 914.928 -119.511 868.471 -101.084C778.648 -65.4889 716.107 -59.4035 661.418 -66.5148C578.67 -77.268 519.903 -136 425.66 -132.089C363.817 -129.389 288.906 -93.9612 218.364 -64.0587C175.918 -46.0321 135.627 -34.6826 91.133 -14.9943C-82.5579 61.8631 -231.436 193.072 -231.436 193.072M1284.53 2.76335C1284.53 2.76335 1171.06 -127.367 1000.4 -130.639C958.183 -131.447 913.738 -124.142 867.109 -105.637C777.005 -69.8928 714.243 -64.0708 659.569 -71.4677C576.569 -82.6931 517.83 -140.863 423.295 -137.068C361.313 -134.449 286.524 -100.024 215.753 -70.0343C173.353 -52.0331 132.932 -40.0151 88.7312 -20.1534C-84.8045 57.8352 -233.42 187.988 -233.42 187.988M1283.83 0.703332C1283.83 0.703332 1170.5 -131.672 999.283 -135.188C957.082 -136.055 912.542 -128.774 865.749 -110.176C775.367 -74.2737 712.377 -68.7257 657.72 -76.4053C574.468 -88.0999 515.748 -145.715 420.927 -142.031C358.801 -139.505 284.14 -106.072 213.141 -75.9947C170.788 -58.0188 130.24 -45.3304 86.3341 -25.2824C-87.0341 53.8087 -235.405 182.9 -235.405 182.9M1283.14 -1.35543C1283.14 -1.35543 1169.95 -135.994 998.167 -139.737C955.983 -140.657 911.344 -133.402 864.387 -114.722C773.71 -78.6784 710.511 -73.3883 655.868 -81.3494C572.37 -93.5085 513.674 -150.572 418.557 -146.998C356.293 -144.55 281.754 -112.126 210.525 -81.9574C168.22 -64.0111 127.55 -50.6504 83.9255 -30.4416C-89.2867 49.8007 -237.401 177.819 -237.401 177.819M1282.45 -3.41572C1282.45 -3.41572 1169.39 -140.287 997.051 -144.286C954.884 -145.258 910.149 -138.032 863.024 -119.269C772.072 -83.0785 708.645 -78.0524 654.017 -86.292C570.268 -98.9274 511.594 -155.427 416.193 -151.969C353.79 -149.609 279.373 -118.184 207.917 -87.9251C165.659 -70.0041 124.868 -55.9582 81.5239 -35.5917C-91.5211 45.7873 -239.374 172.727 -239.374 172.727M1281.76 -5.47614C1281.76 -5.47614 1168.83 -144.601 995.933 -148.835C953.781 -149.871 908.95 -142.662 861.661 -123.816C770.433 -87.4787 706.78 -82.7136 652.164 -91.2377C568.171 -104.349 509.516 -160.286 413.816 -156.938C351.273 -154.659 276.981 -124.238 205.301 -93.8766C163.09 -75.9809 122.171 -61.2776 79.118 -40.7265C-93.7485 41.7845 -241.357 167.643 -241.357 167.643M1281.06 -7.53151C1281.06 -7.53151 1168.27 -148.896 994.807 -153.384C952.673 -154.471 907.745 -147.289 860.292 -128.371C768.787 -91.8892 704.91 -87.3863 650.308 -96.192C566.074 -109.763 507.432 -165.153 411.441 -161.918C348.758 -159.723 274.591 -130.302 202.678 -99.8654C160.515 -81.9993 119.473 -66.6196 76.7101 -45.9011C-95.9635 37.7977 -243.342 162.556 -243.342 162.556M1280.38 -9.59415C1280.38 -9.59415 1167.74 -153.206 993.7 -157.936C951.584 -159.082 906.559 -151.921 858.937 -132.906C767.142 -96.2718 703.055 -92.0397 648.464 -101.126C563.975 -115.182 505.36 -169.997 409.082 -166.876C346.265 -164.757 272.215 -136.347 200.075 -105.82C157.959 -87.9793 116.797 -71.9286 74.3117 -51.0341C-98.1855 33.7909 -245.338 157.474 -245.338 157.474M1279.68 -11.6563C1279.68 -11.6563 1167.16 -157.18 992.58 -162.487C950.476 -163.609 905.359 -156.553 857.57 -137.454C765.494 -100.67 701.199 -96.7102 646.604 -106.071C561.884 -120.597 503.282 -174.855 406.705 -171.843C343.743 -169.82 269.822 -142.403 197.451 -111.784C155.385 -93.9697 114.105 -77.2449 71.8976 -56.1814C-100.397 29.8038 -247.312 152.38 -247.312 152.38M1278.99 -13.713C1278.99 -13.713 1166.6 -161.531 991.464 -167.03C949.377 -168.221 904.166 -161.178 856.21 -141.995C763.852 -105.063 699.327 -101.365 644.755 -111.008C559.787 -126.022 501.203 -179.708 404.339 -176.81C341.248 -174.876 267.437 -148.453 194.84 -117.744C152.819 -99.958 111.419 -82.562 69.495 -61.3248C-102.603 25.8228 -249.295 147.299 -249.295 147.299M1278.31 -15.7761C1278.31 -15.7761 1166.05 -165.89 990.352 -171.585C948.283 -172.845 902.972 -165.813 854.851 -146.548C762.209 -109.465 697.47 -106.038 642.907 -115.959C557.699 -131.454 499.13 -184.57 401.97 -181.793C338.733 -179.93 265.051 -154.509 192.225 -123.71C150.26 -105.953 108.744 -87.8768 67.0903 -66.4741C-104.803 21.8496 -251.28 142.211 -251.28 142.211M1277.61 -17.833C1277.61 -17.833 1165.49 -170.239 989.23 -176.135C947.176 -177.458 901.756 -170.434 853.481 -151.088C760.559 -113.859 695.605 -110.701 641.053 -120.893C555.605 -136.868 497.059 -189.42 399.6 -186.743C336.208 -184.993 262.657 -160.547 189.611 -129.677C147.683 -111.942 106.045 -93.1867 64.6849 -71.6249C-106.995 17.8786 -253.276 137.129 -253.276 137.129M1276.92 -19.8942C1276.92 -19.8942 1164.93 -174.593 988.11 -180.684C946.073 -182.079 900.571 -175.07 852.119 -155.633C758.911 -118.267 693.745 -115.365 639.199 -125.842C553.505 -142.299 494.967 -194.279 397.226 -191.722C333.71 -190.038 260.274 -166.629 186.996 -135.644C145.111 -117.946 103.371 -98.506 62.2779 -76.7707C-109.183 13.9133 -255.25 132.036 -255.25 132.036M1276.22 -21.9535C1276.22 -21.9535 1164.39 -178.961 986.994 -185.234C944.972 -186.696 899.376 -179.701 850.755 -160.183C757.27 -122.656 691.893 -120.096 637.346 -130.788C551.439 -147.825 492.886 -199.137 394.851 -196.702C331.188 -195.102 257.886 -172.688 184.375 -141.62C142.542 -123.94 100.72 -103.765 59.8811 -81.9432C-111.219 10.2437 -257.233 126.952 -257.233 126.952M1275.53 -24.0164C1275.53 -24.0164 1104.86 -267.373 849.392 -164.73C607.463 -67.524 553.03 -205.48 392.486 -201.658C140.023 -195.673 -259.218 121.865 -259.218 121.865" stroke="#0058A1" stroke-opacity="0.07" stroke-miterlimit="10"/>
</g>
</svg>
