<svg width="1280" height="669" viewBox="0 0 1280 669" xmlns="http://www.w3.org/2000/svg">
<path d="M1280 0H0V663C35.3454 665.227 55.4857 665.893 93.5 667C137.217 668.084 162.217 667.802 207 667C253.383 666.672 279.808 664.885 328.5 661C384.665 658.38 413.678 651.91 467 647C515.925 641.28 543.378 638.125 593 634C645.934 630.657 675.288 629.865 727 630C773.017 631.807 798.669 633.23 844 637.5C901.646 643.238 933.987 646.3 992 649.5C1039.16 652.835 1065.56 653.782 1113 653C1150.31 653.713 1171.21 652.584 1208.5 651L1280 647.5V0Z"/>
</svg>
