<svg width="95" height="119" viewBox="0 0 95 119" fill="none" xmlns="http://www.w3.org/2000/svg">
<path d="M483.609 68.3732C483.609 68.3732 419.54 103.205 360.473 117.371C301.926 131.403 272.972 115.146 234.281 130.491C205.722 141.814 190.141 158.729 175.022 177.853C159.903 196.976 147.509 215.191 121.653 235.001C80.2832 266.68 26.0383 275.906 -0.637839 290.25C-27.314 304.593 -49.5658 333.16 -49.5658 333.16M480.5 64.6081C480.5 64.6081 416.92 99.988 358.165 114.704C326.372 122.646 303.238 121.611 282.527 121.339C265.261 121.125 249.714 121.422 232.225 128.091C203.781 138.936 188.144 155.22 172.739 174.213C157.394 193.186 145.109 211.559 119.453 231.43C78.3364 263.346 24.6671 272.186 -2.86268 286.779C-29.5583 301.064 -51.7823 329.695 -51.7823 329.695M477.38 60.8429C477.38 60.8429 414.295 96.7735 355.859 112.048C324.256 120.263 301.142 119.556 280.428 119.348C263.114 119.184 247.586 119.326 230.151 125.699C201.817 136.085 186.125 151.722 170.439 170.581C154.867 189.404 142.689 207.933 117.231 227.865C76.3593 260.025 23.2295 268.368 -5.08731 283.309C-31.8719 297.444 -54.007 326.225 -54.007 326.225M474.282 57.0777C474.282 57.0777 411.689 93.5561 353.548 109.39C322.125 117.88 299.045 117.521 278.331 117.357C260.97 117.243 245.456 117.229 228.082 123.308C199.857 133.221 184.112 148.221 168.156 166.949C152.355 185.62 140.289 204.309 115.026 224.309C74.4014 256.677 21.839 264.602 -7.28425 279.838C-34.1161 293.876 -56.2039 322.754 -56.2039 322.754M471.176 53.3125C471.176 53.3125 409.075 90.3387 351.24 106.731C320.012 115.496 296.937 115.477 276.24 115.352C258.832 115.288 243.329 115.118 226.016 120.913C197.907 130.368 182.057 144.675 165.851 163.315C149.78 181.796 137.826 200.63 112.801 220.744C72.3548 253.26 20.4264 260.834 -9.51158 276.36C-36.3907 290.302 -58.4312 319.276 -58.4312 319.276M468.067 49.55C468.067 49.55 406.469 87.1241 348.932 104.076C317.893 113.116 294.837 113.433 274.148 113.375C256.693 113.375 241.201 113.035 223.949 118.525C195.952 127.507 180.038 141.169 163.559 159.68C147.252 178 135.404 196.99 110.591 217.182C70.372 249.903 19.0275 257.069 -11.7281 272.892C-38.6489 286.746 -60.6477 315.811 -60.6477 315.811M464.958 45.7849C464.958 45.7849 403.847 83.9067 346.624 101.417C315.774 110.733 292.735 111.389 272.057 111.381C254.555 111.423 239.074 110.939 221.883 116.131C193.998 124.645 178.019 137.659 161.262 156.054C144.722 174.213 132.981 193.359 108.374 213.617C68.3837 246.55 17.6259 253.304 -13.95 269.422C-40.9098 283.184 -62.8697 312.338 -62.8697 312.338M461.849 42.0114C461.849 42.0114 401.272 80.8034 344.316 98.7395C313.675 108.397 290.647 109.326 269.963 109.37C252.417 109.462 236.947 108.814 219.817 113.72C192.046 121.764 176.001 134.128 158.974 152.403C142.2 170.403 130.565 189.705 106.164 210.043C66.3984 243.188 16.2302 249.531 -16.1632 265.937C-43.1647 279.613 -65.0829 308.853 -65.0829 308.853M458.748 38.2545C458.748 38.2545 398.683 77.6083 342.016 96.095C311.567 106.033 288.544 107.293 267.88 107.391C250.286 107.535 234.828 106.737 217.759 111.339C190.099 118.917 173.993 130.63 156.691 148.78C139.68 166.621 128.154 186.081 103.958 206.495C64.4322 239.856 14.8341 245.79 -18.3797 262.489C-45.4201 276.082 -67.2994 305.405 -67.2994 305.405M455.634 34.5032C455.634 34.5032 396.056 74.4076 339.7 93.456C309.442 103.678 286.434 105.266 265.781 105.413C248.14 105.608 232.69 104.615 215.683 108.962C188.122 116.008 171.968 127.134 154.388 145.162C137.147 162.845 125.727 182.461 101.74 202.947C62.436 236.514 13.4384 242.039 -20.5957 259.024C-47.6722 272.536 -69.5153 301.94 -69.5153 301.94M452.525 30.7241C452.525 30.7241 393.447 71.2041 337.4 90.7892C307.337 101.295 284.343 103.172 263.709 103.417C246.021 103.628 230.576 102.513 213.635 106.567C186.186 113.138 169.977 123.622 152.116 141.527C134.642 159.046 123.326 178.823 99.5591 199.382C60.4862 233.16 12.0754 238.28 -22.779 255.554C-49.8917 268.988 -71.6987 298.47 -71.6987 298.47M449.416 26.9617C449.416 26.9617 390.838 68.0006 335.084 88.1391C305.212 98.923 282.232 101.131 261.596 101.431C243.863 101.693 228.429 100.419 211.541 104.181C184.204 110.28 167.928 120.118 149.808 137.901C132.103 155.267 120.888 175.194 97.3149 195.828C58.4757 229.82 10.6516 234.531 -25.0259 252.086C-52.1748 265.434 -73.9456 295.002 -73.9456 295.002M446.307 23.1965C446.307 23.1965 388.233 64.7943 332.778 85.4723C303.099 96.5398 280.135 99.0732 259.507 99.4319C241.727 99.7405 226.305 98.3196 209.487 101.782C182.26 107.404 165.923 116.603 147.514 134.261C129.578 151.469 118.471 171.554 95.1015 192.257C56.493 226.461 9.25852 230.771 -27.2533 248.607C-54.4355 261.891 -76.1729 291.523 -76.1729 291.523M443.198 19.4313C443.198 19.4313 385.636 61.5909 330.468 82.8139C300.991 94.1623 278.033 97.0265 257.414 97.4409C239.586 97.7968 224.175 96.209 207.418 99.3874C180.305 104.535 163.907 113.091 145.22 130.627C127.053 147.676 116.049 167.92 92.8883 188.692C54.5134 223.116 7.86564 227.015 -29.4665 245.143C-56.6821 258.354 -78.3861 288.058 -78.3861 288.058M440.089 15.6662C440.089 15.6662 383.016 58.3846 328.16 80.1582C298.864 91.7847 275.931 94.9799 255.32 95.4526C237.447 95.8586 222.047 94.1122 205.352 97.0015C178.35 101.676 161.893 109.587 142.926 127.001C124.531 143.891 113.633 164.294 90.6745 185.139C52.5276 219.776 6.47497 223.272 -31.6803 241.669C-58.932 254.811 -80.5999 284.588 -80.5999 284.588M436.983 11.901C436.983 11.901 380.408 55.1784 325.852 77.4998C296.748 89.4099 273.826 92.9332 253.229 93.456C235.306 93.912 219.92 92.01 203.286 94.6072C176.398 98.8062 159.88 106.078 140.634 123.366C122.003 140.098 111.214 160.659 88.4613 181.574C50.5452 216.428 5.08486 219.52 -33.8935 238.199C-61.1702 251.269 -82.8131 281.115 -82.8131 281.115M433.874 8.13855C433.874 8.13855 377.802 51.9694 323.543 74.8414C294.623 87.0296 271.729 90.8865 251.137 91.4649C233.168 91.971 217.796 89.9077 201.219 92.2157C174.446 95.942 157.867 102.569 138.343 119.746C119.486 136.322 108.797 157.039 86.2475 178.023C48.5651 213.094 3.69421 215.786 -36.1072 234.751C-63.4146 247.751 -85.0269 277.667 -85.0269 277.667M430.765 4.37334C430.765 4.37334 375.194 48.7631 321.235 72.1857C292.515 84.652 269.629 88.8398 249.046 89.4738C231.029 90.03 215.677 87.8054 199.153 89.8242C172.491 93.0778 155.853 99.062 136.049 116.103C116.967 132.509 106.378 153.396 84.0479 174.452C46.599 209.74 2.32047 212.029 -38.3069 231.258C-65.642 244.194 -87.2265 274.174 -87.2265 274.174M427.656 0.60815C427.656 0.60815 372.597 45.5541 318.927 69.5273C290.399 82.2744 267.527 86.7932 246.949 87.4828C228.888 88.0863 213.538 85.7087 197.084 87.4328C170.536 90.2136 153.84 95.5555 133.755 112.46C114.442 128.722 103.958 149.756 81.8205 170.879C44.6024 206.387 0.916238 208.275 -40.5342 227.776C-67.9 240.646 -89.4539 270.692 -89.4539 270.692M424.545 -3.15702C424.545 -3.15702 369.977 42.3423 316.622 66.8688C288.286 79.8968 265.428 84.7465 244.861 85.5001C226.753 86.1564 211.417 83.6203 195.021 85.0524C168.587 87.3577 151.83 92.06 131.466 108.85C111.925 124.957 101.545 146.149 79.6099 167.339C42.6253 203.069 -0.476887 204.554 -42.7616 224.328C-70.1579 237.125 -91.6812 267.233 -91.6812 267.233M421.441 -6.93054C421.441 -6.93054 367.369 39.1333 314.314 64.2132C286.17 77.5165 263.328 82.7027 242.77 83.498C224.614 84.2015 209.289 81.5097 192.955 82.6498C166.635 84.4824 149.819 88.5423 129.172 105.205C109.406 121.158 99.1391 142.509 77.3961 163.768C40.648 199.716 -1.85637 200.803 -44.9781 220.847C-72.3995 233.591 -93.8977 263.763 -93.8977 263.763M418.332 -10.6846C418.332 -10.6846 364.758 35.9214 312.006 61.5548C284.054 75.1361 261.226 80.6644 240.679 81.4986C222.476 82.2522 207.165 79.4019 190.903 80.25C164.697 81.6126 147.823 85.0302 126.895 101.565C106.901 117.362 96.7258 138.872 75.1969 160.198C38.6851 196.367 -3.22137 197.057 -47.1801 217.368C-74.6432 230.059 -96.1137 260.303 -96.1137 260.303M415.224 -14.4387C415.224 -14.4387 362.152 32.7096 309.698 58.8991C281.938 72.7558 259.127 78.6093 238.585 79.5159C220.335 80.3195 205.038 77.3135 188.809 77.8669C162.717 78.7567 145.785 81.5319 124.573 97.9414C104.354 113.583 94.2844 135.254 72.9585 156.644C36.6803 193.036 -4.62555 193.328 -49.4241 213.906C-76.8983 226.531 -98.3437 256.822 -98.3437 256.822M412.115 -18.215C412.115 -18.215 359.544 29.4978 307.39 56.2407C279.822 70.3754 257.025 76.5655 236.48 77.5248C218.183 78.3785 202.899 75.214 186.74 75.4754C160.765 75.8925 143.777 78.0281 122.281 94.3097C101.837 109.799 91.8679 131.625 70.745 153.084C34.7032 189.699 -6.00479 189.593 -51.6403 210.435C-79.1284 223.002 -100.546 253.351 -100.546 253.351M409.006 -21.9802C409.006 -21.9802 356.935 26.286 305.082 53.5822C277.719 67.995 254.917 74.5188 234.403 75.531C216.05 76.4375 200.786 73.1145 184.688 73.0839C158.826 73.0311 141.78 74.5244 120.004 90.678C99.3314 106.011 89.468 127.999 68.5592 149.522C32.7315 186.362 -7.38697 185.859 -53.8456 206.968C-81.3755 219.481 -102.765 249.884 -102.765 249.884M405.897 -25.7454C405.897 -25.7454 354.327 23.0714 302.774 50.9266C275.586 65.6147 252.825 72.4749 232.311 73.5399C213.919 74.4965 198.664 71.0178 182.621 70.6924C156.877 70.1669 139.772 71.0206 117.709 87.0463C96.8146 102.227 87.0513 124.373 66.3316 145.96C30.7625 183.025 -8.76922 182.127 -56.0621 203.497C-83.6114 215.944 -104.982 246.413 -104.982 246.413M402.791 -29.5078C402.791 -29.5078 351.719 19.8568 300.457 48.2681C273.462 63.2316 250.715 70.431 230.209 71.5489C211.772 72.5555 196.528 68.9183 180.547 68.2982C154.916 67.3054 137.753 67.5168 115.41 83.4145C94.2896 98.4308 84.6292 120.747 64.1125 142.401C28.7798 179.688 -10.1596 178.398 -58.2867 200.027C-85.8611 212.418 -107.206 242.943 -107.206 242.943M399.682 -33.273C399.682 -33.273 349.108 16.6422 298.158 45.6097C271.354 60.8512 248.624 68.3844 228.126 69.5578C209.643 70.6145 194.409 66.8215 178.489 65.9067C152.973 64.444 135.754 64.013 113.127 79.7828C91.7788 94.6573 82.2295 117.12 61.9075 138.838C26.8139 176.351 -11.5304 174.669 -60.4945 196.557C-88.0939 208.895 -109.414 239.472 -109.414 239.472M396.573 -37.0382C396.573 -37.0382 346.499 13.4248 295.85 42.9541C269.238 58.4681 246.521 66.3405 226.035 67.564C207.504 68.6763 192.285 64.7249 176.423 63.5152C151.024 61.5687 133.747 60.5119 110.833 76.1511C89.2622 90.8726 79.8103 113.494 59.7052 135.276C24.8508 173.017 -12.9012 170.943 -62.6996 193.086C-90.3212 205.369 -111.619 236.002 -111.619 236.002M393.464 -40.8034C393.464 -40.8034 343.902 10.2075 293.542 40.2956C267.124 56.0849 244.422 64.2966 223.941 65.573C205.366 66.7326 190.16 62.6253 174.357 61.1237C149.072 58.7211 131.739 57.0081 108.541 72.5249C86.7456 87.0907 77.3994 109.863 57.4806 131.717C22.8681 169.683 -14.2916 167.216 -64.927 189.616C-92.5736 201.851 -113.847 232.532 -113.847 232.532M390.355 -44.5686C390.355 -44.5686 341.277 6.99008 291.234 37.6372C265.002 53.7018 242.319 62.2527 221.85 63.5819C203.219 64.7916 188.036 60.5231 172.291 58.7322C147.119 55.8597 129.745 53.5071 106.247 68.8877C84.2316 83.3061 74.9994 106.248 55.2697 128.155C20.8964 166.349 -15.6544 163.493 -67.1435 186.145C-94.8123 198.322 -116.063 229.061 -116.063 229.061M387.246 -48.331C387.246 -48.331 338.666 3.77271 288.926 34.9815C262.884 51.3187 240.22 60.206 219.759 61.5909C201.086 62.8534 185.908 58.4319 170.225 56.3408C145.17 53.0038 127.723 50.0061 103.956 65.256C81.7095 79.5242 72.5746 102.621 53.0673 124.595C18.9248 163.017 -17.0447 159.769 -69.3597 182.675C-97.0508 194.799 -118.265 225.591 -118.265 225.591M384.14 -52.0961C384.14 -52.0961 336.054 0.555331 286.618 32.3231C260.756 48.9355 238.121 58.1622 217.654 59.5999C198.934 60.9124 183.77 56.3352 168.156 53.9493C143.215 50.1396 125.715 46.5051 101.662 61.6215C79.1984 75.7423 70.1636 98.9981 50.8427 121.033C16.9532 159.686 -18.4351 156.052 -71.576 179.204C-99.2922 191.279 -120.49 222.123 -120.49 222.123M381.031 -55.8725C381.031 -55.8725 333.443 -2.66482 284.31 29.6646C258.648 46.5524 236.018 56.1183 215.574 57.606C196.809 58.9714 181.648 54.2385 166.093 51.5578C141.266 47.2809 123.711 43.0041 99.3703 57.9898C76.6846 71.9605 67.7527 95.3747 48.6292 117.471C14.9816 156.355 -19.8005 152.334 -73.7923 175.737C-101.531 187.758 -122.715 218.653 -122.715 218.653M377.922 -59.6265C377.922 -59.6265 330.832 -5.88498 282.002 27.009C256.529 44.1665 233.919 54.0744 213.483 55.615C194.671 57.0332 179.532 52.1445 164.026 49.1663C139.314 44.4223 121.717 39.5086 97.0789 54.3581C74.1652 68.1786 65.3418 91.7513 46.4185 113.911C13.0129 153.023 -21.1742 148.616 -75.9975 172.266C-103.755 184.224 -124.917 215.182 -124.917 215.182M374.813 -63.3806C374.813 -63.3806 328.218 -9.10513 279.693 24.3506C254.41 41.7833 231.817 52.0333 211.392 53.6239C192.532 55.0922 177.408 50.0478 161.96 46.7749C137.364 41.5637 119.692 36.0048 94.7875 50.7263C71.6625 64.3967 62.9308 88.1308 44.205 110.349C11.0413 149.695 -22.5507 144.901 -78.2221 168.796C-106.002 180.717 -127.142 211.712 -127.142 211.712M371.709 -67.1541C371.709 -67.1541 325.604 -12.3281 277.385 21.6921C252.291 39.3974 229.717 49.9894 209.311 51.6329C190.402 53.154 175.291 47.9511 159.905 44.3834C135.434 38.705 117.704 32.5066 92.5042 47.0946C69.1456 60.6148 60.5251 84.5074 42.0023 106.787C9.08885 146.363 -23.9025 141.188 -80.4331 165.325C-108.241 177.199 -129.353 208.241 -129.353 208.241M368.598 -70.9193C368.598 -70.9193 322.99 -15.551 275.077 19.0365C250.172 37.0115 227.617 47.9567 207.206 49.6251C188.255 51.1991 173.155 45.8433 157.825 41.978C133.46 35.8352 115.685 28.9945 90.2018 43.449C66.6234 56.8218 58.1115 80.8729 39.7777 103.214C7.11177 143.035 -25.2983 137.476 -82.6716 161.863C-110.48 173.679 -131.58 204.771 -131.58 204.771M365.489 -74.6845C365.489 -74.6845 320.376 -18.7711 272.769 16.378C248.053 34.6256 225.515 45.9017 205.115 47.648C186.117 49.2748 171.031 43.7549 155.759 39.6004C131.508 32.9905 113.68 25.5102 87.9078 39.8312C64.1098 53.0567 55.7034 77.2634 37.5755 99.6655C5.15424 139.709 -26.6608 133.766 -84.8683 158.385C-112.712 170.161 -133.788 201.301 -133.788 201.301M362.38 -78.4497C362.38 -78.4497 317.762 -21.9941 270.461 13.7196C245.935 32.2397 223.416 43.8606 203.024 45.657C183.978 47.3254 168.904 41.6665 153.693 37.2089C129.556 30.1318 111.675 22.0147 85.6164 36.1995C61.5931 49.2692 53.2953 73.6429 35.3536 96.1033C3.17986 136.38 -28.0484 130.057 -87.0929 154.914C-114.959 166.644 -136.013 197.83 -136.013 197.83M359.271 -82.2149C359.271 -82.2149 315.145 -25.2087 268.153 11.0639C243.815 29.8537 221.316 41.8167 200.933 43.6798C181.84 45.4095 166.779 39.5865 151.627 34.8313C127.603 27.2732 109.67 18.5164 83.3248 32.5567C59.0791 45.4873 50.8869 70.0111 33.1399 92.5327C1.21641 133.043 -29.4279 126.339 -89.3094 151.433C-117.198 163.112 -138.229 194.349 -138.229 194.349M356.162 -85.9773C356.162 -85.9773 312.532 -28.44 265.848 8.40551C241.694 27.4678 219.214 39.7728 198.831 41.6749C179.691 43.4573 164.644 37.4787 149.552 32.426C125.638 24.4201 107.654 15.021 81.0227 28.9361C56.5517 41.7277 48.4707 66.4017 30.9184 88.9817C-0.746464 129.729 -30.7846 122.654 -91.5253 147.973C-119.433 159.611 -140.445 190.889 -140.445 190.889M353.053 -89.7425C353.053 -89.7425 309.915 -31.6657 263.537 5.74708C239.572 25.0819 217.098 37.7262 196.745 39.6727C177.558 41.5108 162.522 35.3736 147.492 30.0261C123.694 21.5559 105.655 11.5144 78.7367 25.2988C54.0517 37.9403 46.0791 62.7838 28.7159 85.4195C-2.70706 126.403 -32.1556 118.945 -93.7418 144.506C-121.672 156.096 -142.664 187.422 -142.664 187.422M349.947 -93.5077C349.947 -93.5077 307.298 -34.8886 261.24 3.0914C237.461 22.696 215.023 35.6878 194.665 37.69C175.43 39.5809 160.408 33.288 145.445 27.643C121.744 18.7083 103.641 8.0273 76.4452 21.6726C51.5376 34.1639 43.6652 59.1632 26.5022 81.8601C-4.67047 123.077 -33.5267 115.243 -95.961 141.035C-123.908 152.581 -144.881 183.951 -144.881 183.951M346.838 -97.2729C346.838 -97.2729 304.693 -38.1143 258.924 0.432976C235.332 20.3212 212.927 33.6467 192.563 35.699C173.284 37.6455 158.273 31.1941 143.362 25.2515C119.792 15.8525 101.651 4.53185 74.1541 18.0409C49.0241 30.3849 41.2602 55.5427 24.289 78.2979C-6.63059 119.754 -34.8945 111.531 -98.177 137.565C-126.146 149.072 -147.097 180.495 -147.097 180.495M343.73 -101.038C343.73 -101.038 302.062 -41.3401 256.616 -2.22547C233.21 17.9214 210.813 31.6056 190.472 33.7079C171.145 35.7045 156.146 29.1001 141.296 22.8628C117.838 12.9994 99.6429 1.04196 71.8628 14.4092C46.5104 26.6113 38.8549 51.9277 22.0867 74.7385C-8.57706 116.431 -36.2515 107.847 -100.382 134.097C-128.371 145.554 -149.302 177.013 -149.302 177.013M340.62 -104.8C340.62 -104.8 299.442 -44.5658 254.307 -4.88111C231.088 15.5327 208.702 29.5617 188.38 31.7141C169.006 33.7663 154.018 27.009 139.23 20.4658C115.871 10.1407 97.6375 -2.45627 69.5682 10.7747C43.9849 22.8322 36.449 48.3154 19.8644 71.1763C-10.5463 113.105 -37.6229 104.148 -102.61 130.624C-130.618 142.036 -151.53 173.543 -151.53 173.543M337.506 -108.566C337.506 -108.566 296.818 -47.7943 251.994 -7.53955C228.961 13.1468 206.606 27.5207 186.284 29.723C166.863 31.8281 151.886 24.9151 137.159 18.0743C113.925 7.28762 95.6275 -5.94894 67.2718 7.14302C41.4744 19.0559 34.0413 44.6837 17.6458 67.6141C-12.5091 109.782 -39.0044 100.455 -104.831 127.154C-132.862 138.521 -153.751 170.07 -153.751 170.07M334.405 -112.323C334.405 -112.323 294.201 -51.0116 249.691 -10.1869C226.844 10.7664 204.512 25.4879 184.195 27.7403C164.73 29.8982 149.764 22.8294 135.098 15.6912C111.984 4.43174 93.6306 -9.43327 64.9884 3.51131C38.9686 15.2796 31.644 41.0687 15.4403 64.0519C-14.4588 106.462 -40.3646 96.7623 -107.042 123.683C-135.092 135.009 -155.962 166.591 -155.962 166.591M331.297 -116.096C331.297 -116.096 291.581 -54.2457 247.384 -12.8536C224.723 8.36937 202.413 23.4385 182.105 25.741C162.592 27.9656 147.623 20.7355 133.032 13.2914C110.021 1.57866 91.6232 -12.9371 62.6779 -0.120399C36.4384 11.5033 29.225 37.4509 13.2104 60.5008C-16.4133 103.139 -41.7324 93.0695 -109.258 120.213C-137.328 131.497 -158.178 163.129 -158.178 163.129M328.188 -119.861C328.188 -119.861 288.959 -57.4742 245.076 -15.5121C222.598 5.98066 200.305 21.3974 180.005 23.7499C160.445 26.0162 145.501 18.636 130.955 10.8999C108.058 -1.27721 89.6099 -16.4297 60.3921 -3.75212C33.9301 7.72976 26.828 33.8303 11.0053 56.9303C-18.3765 99.8184 -43.1061 89.3821 -111.483 116.742C-139.569 127.982 -160.403 159.658 -160.403 159.658M325.079 -123.624C325.079 -123.624 286.337 -60.7027 242.767 -18.1677C220.474 3.59196 198.211 19.3535 177.922 21.7561C158.315 24.078 143.379 16.5421 128.897 8.50839C106.111 -4.1303 87.613 -19.9224 58.106 -7.38383C31.4104 3.95345 24.4334 30.2125 8.79981 53.3681C-20.3206 96.4954 -44.4607 85.6948 -113.691 113.275C-141.799 124.47 -162.614 156.191 -162.614 156.191M321.97 -127.389C321.97 -127.389 283.715 -63.9368 240.457 -20.8345C218.349 1.1977 196.114 17.343 175.825 19.765C156.179 22.176 141.249 14.4482 126.828 6.11691C104.153 -6.98618 85.6084 -23.4123 55.8122 -11.0155C28.9108 0.179922 22.0339 26.5974 6.5922 49.7976C-22.2724 93.1779 -45.8257 82.0075 -115.91 109.804C-144.038 120.958 -164.83 152.72 -164.83 152.72M318.875 -131.154C318.875 -131.154 281.103 -67.1597 238.165 -23.4846C216.227 -1.18268 194.017 15.3158 173.737 17.774C154.043 20.2378 139.124 12.357 124.764 3.72542C102.198 -9.83927 83.6088 -26.905 53.5234 -14.6473C26.3968 -3.59362 19.6311 22.9796 4.36737 46.2465C-24.2247 89.8548 -47.1913 78.3229 -118.126 106.334C-146.274 117.457 -167.046 149.25 -167.046 149.25M315.754 -134.919C315.754 -134.919 278.464 -70.3882 235.843 -26.1402C214.103 -3.57136 191.906 13.2635 171.646 15.7829C151.902 18.2856 136.994 10.2631 122.704 1.32283C100.246 -12.7035 81.6036 -30.406 51.2374 -18.2901C23.8911 -7.38104 17.2395 19.3507 2.16758 42.6732C-26.1742 86.5374 -48.554 74.6412 -120.343 102.863C-148.51 113.936 -169.263 145.779 -169.263 145.779M312.646 -138.684C312.646 -138.684 275.839 -73.6139 233.535 -28.7987C211.979 -5.96006 189.816 11.2197 169.555 13.7891C149.767 16.3558 134.848 8.19971 120.632 -1.05754C98.2553 -15.501 79.5962 -33.8875 48.938 -21.9135C21.3693 -11.1462 14.8316 15.7412 -0.0511581 39.1221C-28.1205 83.2171 -49.9163 70.9621 -122.559 99.3929C-150.745 110.419 -171.479 142.309 -171.479 142.309M309.537 -142.447C309.537 -142.447 273.131 -76.9203 231.227 -31.4571C209.815 -8.37657 187.713 9.17299 167.461 11.7981C147.628 14.4176 132.72 6.103 118.566 -3.44901C96.303 -18.3624 77.5911 -37.3746 46.6465 -25.5424C18.8552 -14.917 12.4316 12.1262 -2.26484 35.5627C-30.0727 79.8968 -51.2791 67.2832 -124.775 95.9225C-152.981 106.915 -173.695 138.838 -173.695 138.838M306.428 -146.212C306.428 -146.212 270.517 -80.1376 228.919 -34.1128C207.69 -10.7708 185.614 7.12911 165.369 9.80701C145.489 12.4766 130.593 4.00628 116.5 -5.84049C94.348 -21.2238 75.6054 -40.8089 44.3521 -29.1769C16.3607 -18.6377 10.0344 8.51116 -4.47855 32.0005C-32.0139 76.5793 -52.639 63.6042 -126.992 92.4521C-155.217 103.403 -175.911 135.368 -175.911 135.368M303.319 -149.977C303.319 -149.977 267.903 -83.355 226.611 -36.7712C205.572 -13.154 183.509 5.08525 163.279 7.81598C143.351 10.5356 128.466 1.90959 114.434 -8.23196C92.3934 -24.0825 73.598 -44.3099 42.0611 -32.8086C13.8416 -22.4195 7.63491 4.89336 -6.69172 28.4411C-33.9574 73.2619 -54.0013 59.9308 -129.208 88.9817C-157.452 99.8935 -178.127 131.898 -178.127 131.898M300.213 -153.742C300.213 -153.742 265.289 -86.5724 224.297 -39.4296C203.441 -15.5371 181.406 3.04135 161.173 5.82214C141.202 8.60293 126.327 -0.187148 112.356 -10.6235C90.4411 -26.9523 71.5873 -47.8082 39.7667 -36.4403C11.3248 -26.2014 5.28494 1.30058 -8.89709 24.8789C-35.8151 69.9917 -55.2973 56.4075 -131.419 85.5001C-159.666 96.4397 -180.344 128.427 -180.344 128.427M297.104 -157.508C297.104 -157.508 262.675 -89.7981 221.995 -42.0853C201.333 -17.9175 179.312 0.997478 159.093 3.8311C139.071 6.65639 124.211 -2.28664 110.301 -13.0149C88.4861 -29.8026 69.5795 -51.312 37.4753 -40.072C8.81643 -29.9861 2.86832 -2.32279 -11.1163 21.3167C-37.7896 66.6575 -56.6823 52.6868 -133.641 82.0547C-161.91 92.8998 -182.563 124.96 -182.563 124.96M293.995 -161.264C293.995 -161.264 260.07 -92.9988 219.687 -44.7493C199.215 -20.3062 177.213 -1.05196 157.002 1.8345C136.936 4.70984 122.084 -4.38613 108.236 -15.4064C86.5454 -32.664 67.5693 -54.8102 35.1842 -43.7037C6.28624 -33.768 0.457711 -5.94893 -13.3294 17.7517C-39.7553 63.3233 -58.0612 48.9633 -135.859 78.5732C-164.148 89.3821 -184.779 121.489 -184.779 121.489M290.885 -165.035C290.885 -165.035 215.012 -8.89936 154.905 -0.15099C103.296 7.35714 86.4195 -65.3216 32.8838 -47.3354C3.76888 -37.5498 -1.95398 -9.57231 -15.5437 14.2034C-41.7248 59.9919 -59.4413 45.2454 -138.076 75.1027C-166.396 85.8561 -186.996 118.019 -186.996 118.019" stroke="#0058A1" stroke-opacity="0.5" stroke-width="1.5" stroke-miterlimit="10"/>
</svg>
