<svg width="261" height="385" viewBox="0 0 261 385" fill="none" xmlns="http://www.w3.org/2000/svg">
<path d="M2.81641 129.251C2.81697 109.109 7.57621 89.2517 16.7063 71.2976C25.8365 53.3436 39.0792 37.8006 55.3554 25.935C71.6316 14.0695 90.4809 6.21711 110.367 3.01777C130.254 -0.181571 150.615 1.36262 169.791 7.52451C188.968 13.6864 206.417 24.2917 220.718 38.4762C235.018 52.6607 245.766 70.0231 252.084 89.1488C258.402 108.274 260.112 128.622 257.075 148.534C254.037 168.446 246.339 187.359 234.606 203.731C230.657 209.136 225.964 213.957 220.666 218.051L127.716 293.051" stroke="#BECCE0" stroke-width="1.5" stroke-linecap="round"/>
<path d="M10.166 129.249C10.1727 110.276 14.6583 91.5731 23.2578 74.661C31.8573 57.749 44.3279 43.1059 59.6548 31.9232C74.9818 20.7405 92.7322 13.334 111.462 10.3063C130.192 7.27863 149.372 8.71532 167.441 14.4995C185.511 20.2836 201.96 30.2518 215.45 43.5931C228.94 56.9344 239.09 73.2719 245.074 91.2763C251.058 109.281 252.707 128.444 249.887 147.206C247.067 165.968 239.858 183.799 228.846 199.249C225.006 204.546 220.423 209.262 215.236 213.249L115.676 293.139" stroke="#BECCE0" stroke-width="1.5" stroke-linecap="round"/>
<path d="M17.4668 129.25C17.4605 111.44 21.6562 93.88 29.7131 77.9965C37.7699 62.1129 49.4606 48.3544 63.835 37.8389C78.2094 27.3234 94.862 20.3477 112.439 17.4786C130.017 14.6095 148.023 15.9281 164.995 21.327C181.967 26.726 197.426 36.053 210.115 48.5502C222.805 61.0475 232.367 76.3622 238.024 93.2499C243.681 110.138 245.274 128.122 242.673 145.741C240.073 163.36 233.352 180.117 223.057 194.65C219.326 199.844 214.847 204.457 209.767 208.34L103.607 293.1" stroke="#BECCE0" stroke-width="1.5" stroke-linecap="round"/>
<path d="M24.7871 129.249C24.7849 112.609 28.7049 96.2022 36.2292 81.3601C43.7534 66.5179 54.6701 53.6582 68.0936 43.8239C81.5172 33.9897 97.0697 27.4578 113.49 24.7582C129.91 22.0585 146.735 23.267 162.6 28.2858C178.466 33.3045 192.925 41.9921 204.805 53.6439C216.686 65.2957 225.652 79.5837 230.978 95.3488C236.304 111.114 237.839 127.913 235.458 144.382C233.078 160.851 226.849 176.527 217.277 190.139C213.643 195.229 209.26 199.741 204.277 203.519L91.5471 293.099" stroke="#BECCE0" stroke-width="1.5" stroke-linecap="round"/>
<path d="M32.166 129.249C32.1553 113.769 35.7914 98.5031 42.7797 84.6894C49.7679 70.8757 59.9119 58.9025 72.3897 49.7397C84.8675 40.5768 99.3282 34.4821 114.6 31.9492C129.872 29.4164 145.526 30.5167 160.294 35.1609C175.062 39.8051 188.528 47.8627 199.601 58.6809C210.675 69.499 219.044 82.7735 224.031 97.4289C229.019 112.084 230.484 127.708 228.307 143.035C226.131 158.362 220.375 172.961 211.506 185.649C207.99 190.607 203.73 194.992 198.876 198.649L79.496 293.099" stroke="#BECCE0" stroke-width="1.5" stroke-linecap="round"/>
<path d="M39.4365 129.252C39.4261 114.941 42.7822 100.828 49.2339 88.0534C55.6855 75.279 65.0516 64.2013 76.5756 55.7154C88.0995 47.2296 101.458 41.5736 115.572 39.2043C129.685 36.8351 144.158 37.8191 157.822 42.0769C171.485 46.3346 183.955 53.7467 194.224 63.7143C204.493 73.6819 212.274 85.9253 216.937 99.4555C221.6 112.986 223.015 127.423 221.068 141.601C219.12 155.779 213.865 169.3 205.727 181.072C202.336 185.95 198.187 190.254 193.437 193.822L67.4365 293.102" stroke="#BECCE0" stroke-width="1.5" stroke-linecap="round"/>
<path d="M46.7568 129.251C46.7512 116.111 49.8316 103.153 55.7502 91.4208C61.6687 79.6888 70.2598 69.5108 80.8316 61.7066C91.4034 53.9024 103.66 48.6902 116.615 46.4896C129.57 44.2891 142.86 45.1619 155.416 49.0376C167.972 52.9133 179.442 59.6837 188.902 68.8034C198.363 77.923 205.549 89.1371 209.883 101.542C214.216 113.947 215.576 127.197 213.852 140.224C212.127 153.25 207.368 165.69 199.957 176.541C196.662 181.314 192.609 185.517 187.957 188.981L55.3868 293.101" stroke="#BECCE0" stroke-width="1.5" stroke-linecap="round"/>
<path d="M54.0864 129.249C54.0743 117.272 56.8715 105.459 62.2533 94.7583C67.635 84.058 75.4514 74.769 85.0744 67.6376C94.6974 60.5062 105.859 55.731 117.662 53.6958C129.465 51.6606 141.582 52.422 153.037 55.9189C164.493 59.4158 174.969 65.5507 183.623 73.8307C192.278 82.1108 198.87 92.3052 202.869 103.595C206.869 114.885 208.166 126.956 206.654 138.837C205.143 150.719 200.866 162.081 194.166 172.009C190.996 176.672 187.064 180.769 182.536 184.129L43.3164 293.129" stroke="#BECCE0" stroke-width="1.5" stroke-linecap="round"/>
<path d="M61.4064 129.253C61.3981 118.444 63.9193 107.783 68.7683 98.1235C73.6173 88.4636 80.6596 80.0725 89.3318 73.6212C98.0041 67.17 108.066 62.8377 118.712 60.9708C129.358 59.1039 140.293 59.7542 150.643 62.8698C160.993 65.9853 170.47 71.4796 178.317 78.9133C186.163 86.3469 192.161 95.5135 195.831 105.68C199.501 115.847 200.741 126.731 199.452 137.462C198.163 148.194 194.38 158.475 188.406 167.483C185.344 172.04 181.518 176.036 177.096 179.293L31.2764 293.103" stroke="#BECCE0" stroke-width="1.5" stroke-linecap="round"/>
<path d="M68.7268 129.252C68.7244 119.615 70.9709 110.11 75.2877 101.493C79.6044 92.8765 85.8723 85.3861 93.5927 79.6176C101.313 73.8491 110.273 69.9618 119.76 68.2647C129.247 66.5677 138.999 67.1078 148.24 69.8421C157.482 72.5764 165.957 77.4294 172.994 84.0152C180.03 90.6009 185.432 98.7377 188.771 107.778C192.11 116.819 193.293 126.514 192.226 136.092C191.16 145.67 187.873 154.868 182.627 162.952C179.672 167.405 175.947 171.296 171.627 174.442L19.2168 293.102" stroke="#BECCE0" stroke-width="1.5" stroke-linecap="round"/>
<path d="M76.056 129.25C76.0564 120.781 78.0264 112.427 81.8103 104.85C85.5943 97.2728 91.0886 90.6793 97.859 85.5906C104.629 80.5019 112.49 77.0574 120.821 75.5292C129.152 74.0011 137.723 74.4312 145.859 76.7856C153.995 79.1399 161.472 83.354 167.699 89.0949C173.926 94.8358 178.733 101.946 181.739 109.864C184.745 117.782 185.869 126.291 185.022 134.718C184.174 143.145 181.379 151.26 176.856 158.42C174.007 162.767 170.384 166.553 166.166 169.59L7.16602 293.1" stroke="#BECCE0" stroke-width="1.5" stroke-linecap="round"/>
<path d="M1.16602 309.152H259.746" stroke="#8A92A6" stroke-width="2" stroke-linecap="round"/>
<path d="M1.16602 316.594H259.746" stroke="#8A92A6" stroke-width="2" stroke-linecap="round"/>
<path d="M1.16602 324.043H259.746" stroke="#8A92A6" stroke-width="2" stroke-linecap="round"/>
<path d="M1.16602 331.492H259.746" stroke="#8A92A6" stroke-width="2" stroke-linecap="round"/>
<path d="M1.16602 338.941H259.746" stroke="#8A92A6" stroke-width="2" stroke-linecap="round"/>
<path d="M1.16602 346.383H259.746" stroke="#8A92A6" stroke-width="2" stroke-linecap="round"/>
<path d="M1.16602 353.832H259.746" stroke="#8A92A6" stroke-width="2" stroke-linecap="round"/>
<path d="M1.16602 361.281H259.746" stroke="#8A92A6" stroke-width="2" stroke-linecap="round"/>
<path d="M1.16602 368.73H259.746" stroke="#8A92A6" stroke-width="2" stroke-linecap="round"/>
<path d="M1.16602 376.172H259.746" stroke="#8A92A6" stroke-width="2" stroke-linecap="round"/>
<path d="M1.16602 383.652H259.746" stroke="#8A92A6" stroke-width="2" stroke-linecap="round"/>
</svg>
